M48
; DRILL file {KiCad 7.0.10} date Thu May 30 17:48:34 2024
; FORMAT={-:-/ absolute / metric / decimal}
; #@! TF.CreationDate,2024-05-30T17:48:34+05:30
; #@! TF.GenerationSoftware,Kicad,Pcbnew,7.0.10
; #@! TF.FileFunction,MixedPlating,1,4
FMAT,2
METRIC
; #@! TA.AperFunction,Plated,PTH,ComponentDrill
T1C0.300
; #@! TA.AperFunction,Plated,PTH,ViaDrill
T2C0.400
; #@! TA.AperFunction,Plated,PTH,ComponentDrill
T3C0.400
; #@! TA.AperFunction,Plated,PTH,ComponentDrill
T4C0.600
; #@! TA.AperFunction,Plated,PTH,ComponentDrill
T5C0.800
; #@! TA.AperFunction,Plated,PTH,ComponentDrill
T6C1.000
; #@! TA.AperFunction,NonPlated,NPTH,ComponentDrill
T7C5.000
%
G90
G05
T1
X145.63Y-107.239
X145.63Y-108.254
X145.63Y-109.27
X146.647Y-107.239
X146.647Y-108.254
X146.647Y-109.27
X147.662Y-107.239
X147.662Y-108.254
X147.662Y-109.27
X168.057Y-106.727
X168.057Y-108.127
X168.057Y-109.527
X168.757Y-107.427
X168.757Y-108.827
X169.457Y-106.727
X169.457Y-108.127
X169.457Y-109.527
X170.157Y-107.427
X170.157Y-108.827
X170.857Y-106.727
X170.857Y-108.127
X170.857Y-109.527
T2
X101.038Y-61.129
X106.006Y-64.812
X106.832Y-125.581
X106.895Y-85.64
X107.657Y-101.769
X107.911Y-113.707
X108.673Y-91.228
X108.8Y-99.483
X109.435Y-136.821
X109.816Y-135.932
X110.159Y-123.648
X110.451Y-136.821
X110.578Y-106.468
X110.832Y-135.932
X111.213Y-91.609
X111.468Y-136.821
X111.975Y-101.896
X112.102Y-85.894
X112.864Y-116.374
X112.864Y-121.454
X113.245Y-91.355
X115.785Y-76.202
X115.785Y-129.836
X115.785Y-130.979
X116.039Y-139.107
X116.293Y-46.31
X116.293Y-134.535
X116.547Y-131.487
X116.547Y-138.345
X116.674Y-91.736
X116.674Y-129.455
X116.674Y-130.471
X117.055Y-139.107
X117.436Y-102.277
X117.563Y-138.345
X118.072Y-139.107
X118.706Y-86.275
X119.087Y-96.054
X119.849Y-86.275
X120.992Y-86.275
X122.135Y-115.104
X122.135Y-117.517
X122.135Y-120.184
X122.135Y-122.724
X123.659Y-99.61
X123.659Y-102.15
X127.82Y-64.812
X131.153Y-61.129
X133.535Y-109.389
X135.089Y-122.978
X135.821Y-101.769
X135.851Y-100.626
X136.859Y-109.262
X137.345Y-102.15
X138.361Y-105.706
X138.518Y-114.342
X138.518Y-115.866
X139.661Y-96.689
X140.742Y-108.881
X141.028Y-104.944
X141.185Y-119.295
X142.837Y-104.436
X142.837Y-112.31
X143.023Y-113.707
X144.33Y-112.818
X144.487Y-110.405
X144.614Y-116.755
X144.868Y-113.834
X145.249Y-95.927
X145.504Y-120.184
X145.552Y-101.436
X146.519Y-120.819
X146.773Y-116.755
X146.87Y-102.277
X146.9Y-113.58
X147.409Y-118.279
X150.076Y-118.279
X150.329Y-104.563
X150.329Y-117.146
X150.876Y-97.85
X151.726Y-114.469
X152.234Y-115.739
X152.4Y-101.092
X152.488Y-121.14
X152.996Y-110.405
X152.996Y-113.072
X153.631Y-102.785
X153.885Y-99.356
X153.924Y-101.346
X154.266Y-104.563
X154.393Y-110.54
X154.393Y-125.029
X155.505Y-120.088
X155.517Y-105.452
X155.536Y-125.899
X156.552Y-119.549
X157.188Y-109.77
X157.284Y-112.564
X158.457Y-109.389
X159.219Y-105.96
X159.219Y-115.228
X159.727Y-119.168
X159.855Y-120.946
X160.332Y-124.629
X160.743Y-128.312
X160.743Y-131.868
X160.87Y-111.421
X161.475Y-105.553
X161.475Y-125.264
X161.632Y-129.562
X161.76Y-99.991
X162.141Y-96.435
X162.394Y-117.009
X162.618Y-125.899
X162.648Y-130.979
X164.68Y-96.435
X164.68Y-131.868
X164.808Y-113.072
X165.061Y-107.23
X165.061Y-111.802
X165.57Y-106.341
X166.014Y-99.673
X166.585Y-96.181
X166.585Y-111.802
X167.475Y-117.263
X169.252Y-111.802
X169.633Y-100.376
X170.522Y-98.086
X170.903Y-111.802
X170.903Y-130.852
X171.919Y-103.801
X171.983Y-99.927
X172.046Y-102.362
X172.046Y-111.809
X172.3Y-104.817
X172.397Y-129.074
X172.427Y-105.833
X173.062Y-114.215
X173.174Y-105.325
X173.444Y-107.865
X173.57Y-132.757
X174.84Y-107.992
X175.983Y-93.133
X176.111Y-111.929
X176.364Y-107.992
X176.618Y-104.817
X177.105Y-121.073
X177.126Y-119.295
X177.126Y-122.724
X177.126Y-129.582
X177.761Y-132.757
X178.331Y-110.405
X178.331Y-111.421
X178.397Y-67.733
X179.793Y-102.912
X179.793Y-104.69
X179.793Y-106.468
X180.683Y-103.928
X180.683Y-105.579
X180.809Y-95.8
X180.809Y-108.881
X182.43Y-106.976
X182.43Y-107.992
X182.43Y-109.008
X182.714Y-125.01
X182.714Y-128.185
X183.984Y-125.01
X183.984Y-128.185
X184.238Y-112.31
X184.385Y-97.112
X184.385Y-99.483
X184.385Y-101.962
X184.619Y-115.993
X184.619Y-119.422
X185.254Y-112.31
X185.254Y-125.01
X185.254Y-128.185
X185.762Y-115.993
X185.762Y-119.422
X186.397Y-112.31
X186.524Y-125.01
X186.524Y-128.185
X186.905Y-116.501
X186.905Y-117.644
X186.905Y-118.787
X187.032Y-97.112
X187.159Y-99.483
X187.286Y-101.962
X187.54Y-112.31
X188.81Y-105.325
X189.934Y-97.112
X189.934Y-99.483
X189.934Y-101.962
X190.081Y-119.93
X190.081Y-122.724
X190.081Y-124.375
X190.969Y-61.256
T3
X166.802Y-126.392
X166.826Y-124.954
X167.564Y-124.233
X167.564Y-125.63
X167.564Y-127.027
X168.284Y-124.97
X168.284Y-126.367
X169.001Y-124.258
X169.001Y-125.655
X169.001Y-127.052
X169.722Y-124.995
X169.722Y-126.392
T5
X111.447Y-139.107
X113.987Y-139.107
T6
X127.469Y-73.575
X127.469Y-76.115
X130.01Y-73.575
X130.01Y-76.115
X132.549Y-73.575
X132.549Y-76.115
X135.089Y-73.575
X135.089Y-76.115
X135.344Y-125.518
X135.344Y-128.058
X137.63Y-73.575
X137.63Y-76.115
X137.883Y-125.518
X137.883Y-128.058
X140.423Y-125.518
X140.423Y-128.058
X142.963Y-125.518
X142.963Y-128.058
X145.504Y-125.518
X145.504Y-128.058
X148.561Y-77.258
X151.101Y-77.258
X153.641Y-77.258
X156.181Y-77.258
X167.347Y-88.307
X167.347Y-90.847
X169.887Y-88.307
X169.887Y-90.847
X172.427Y-88.307
X172.427Y-90.847
X174.968Y-88.307
X174.968Y-90.847
X177.507Y-88.307
X177.507Y-90.847
T7
X102.704Y-47.667
X102.704Y-74.845
X135.978Y-89.069
X135.978Y-136.059
X189.319Y-47.667
X189.319Y-74.845
X189.319Y-89.069
X189.319Y-136.059
T4
G00X99.983Y-115.991
M15
G01X100.582Y-115.991
M16
G05
G00X99.983Y-124.631
M15
G01X100.582Y-124.631
M16
G05
G00X103.782Y-115.991
M15
G01X104.382Y-115.991
M16
G05
G00X103.782Y-124.631
M15
G01X104.382Y-124.631
M16
G05
G00X143.726Y-86.931
M15
G01X143.726Y-86.131
M16
G05
G00X143.726Y-91.261
M15
G01X143.726Y-90.161
M16
G05
G00X152.367Y-86.931
M15
G01X152.367Y-86.131
M16
G05
G00X152.367Y-91.261
M15
G01X152.367Y-90.161
M16
G05
M30
