%TF.GenerationSoftware,KiCad,Pcbnew,7.0.10*%
%TF.CreationDate,2024-05-30T17:48:34+05:30*%
%TF.ProjectId,Stepper Module,53746570-7065-4722-904d-6f64756c652e,rev?*%
%TF.SameCoordinates,Original*%
%TF.FileFunction,Soldermask,Bot*%
%TF.FilePolarity,Negative*%
%FSLAX46Y46*%
G04 Gerber Fmt 4.6, Leading zero omitted, Abs format (unit mm)*
G04 Created by KiCad (PCBNEW 7.0.10) date 2024-05-30 17:48:34*
%MOMM*%
%LPD*%
G01*
G04 APERTURE LIST*
G04 Aperture macros list*
%AMRoundRect*
0 Rectangle with rounded corners*
0 $1 Rounding radius*
0 $2 $3 $4 $5 $6 $7 $8 $9 X,Y pos of 4 corners*
0 Add a 4 corners polygon primitive as box body*
4,1,4,$2,$3,$4,$5,$6,$7,$8,$9,$2,$3,0*
0 Add four circle primitives for the rounded corners*
1,1,$1+$1,$2,$3*
1,1,$1+$1,$4,$5*
1,1,$1+$1,$6,$7*
1,1,$1+$1,$8,$9*
0 Add four rect primitives between the rounded corners*
20,1,$1+$1,$2,$3,$4,$5,0*
20,1,$1+$1,$4,$5,$6,$7,0*
20,1,$1+$1,$6,$7,$8,$9,0*
20,1,$1+$1,$8,$9,$2,$3,0*%
%AMFreePoly0*
4,1,6,1.000000,0.000000,0.500000,-0.750000,-0.500000,-0.750000,-0.500000,0.750000,0.500000,0.750000,1.000000,0.000000,1.000000,0.000000,$1*%
%AMFreePoly1*
4,1,6,0.500000,-0.750000,-0.650000,-0.750000,-0.150000,0.000000,-0.650000,0.750000,0.500000,0.750000,0.500000,-0.750000,0.500000,-0.750000,$1*%
G04 Aperture macros list end*
%ADD10C,0.400269*%
%ADD11C,5.000000*%
%ADD12RoundRect,0.250000X0.600000X-0.600000X0.600000X0.600000X-0.600000X0.600000X-0.600000X-0.600000X0*%
%ADD13C,1.700000*%
%ADD14R,1.700000X1.700000*%
%ADD15O,1.700000X1.700000*%
%ADD16C,1.400000*%
%ADD17O,1.000000X2.100000*%
%ADD18O,1.000000X1.800000*%
%ADD19R,1.500000X2.000000*%
%ADD20R,2.600000X1.500000*%
%ADD21R,1.000000X0.750000*%
%ADD22R,1.000000X1.000000*%
%ADD23R,2.900000X5.400000*%
%ADD24RoundRect,0.125000X-0.125000X0.587500X-0.125000X-0.587500X0.125000X-0.587500X0.125000X0.587500X0*%
%ADD25R,2.000000X1.500000*%
%ADD26RoundRect,0.225000X0.225000X0.250000X-0.225000X0.250000X-0.225000X-0.250000X0.225000X-0.250000X0*%
%ADD27RoundRect,0.250000X0.262500X0.450000X-0.262500X0.450000X-0.262500X-0.450000X0.262500X-0.450000X0*%
%ADD28RoundRect,0.250000X-0.262500X-0.450000X0.262500X-0.450000X0.262500X0.450000X-0.262500X0.450000X0*%
%ADD29R,0.650000X1.800000*%
%ADD30RoundRect,0.250000X0.650000X-1.000000X0.650000X1.000000X-0.650000X1.000000X-0.650000X-1.000000X0*%
%ADD31RoundRect,0.100000X-0.100000X0.637500X-0.100000X-0.637500X0.100000X-0.637500X0.100000X0.637500X0*%
%ADD32RoundRect,0.258250X-0.258250X0.479250X-0.258250X-0.479250X0.258250X-0.479250X0.258250X0.479250X0*%
%ADD33RoundRect,0.250000X0.450000X-0.262500X0.450000X0.262500X-0.450000X0.262500X-0.450000X-0.262500X0*%
%ADD34RoundRect,0.250000X0.475000X-0.250000X0.475000X0.250000X-0.475000X0.250000X-0.475000X-0.250000X0*%
%ADD35RoundRect,0.175000X0.425000X-0.175000X0.425000X0.175000X-0.425000X0.175000X-0.425000X-0.175000X0*%
%ADD36RoundRect,0.190000X-0.410000X0.190000X-0.410000X-0.190000X0.410000X-0.190000X0.410000X0.190000X0*%
%ADD37RoundRect,0.200000X-0.400000X0.200000X-0.400000X-0.200000X0.400000X-0.200000X0.400000X0.200000X0*%
%ADD38RoundRect,0.175000X-0.425000X0.175000X-0.425000X-0.175000X0.425000X-0.175000X0.425000X0.175000X0*%
%ADD39RoundRect,0.190000X0.410000X-0.190000X0.410000X0.190000X-0.410000X0.190000X-0.410000X-0.190000X0*%
%ADD40RoundRect,0.200000X0.400000X-0.200000X0.400000X0.200000X-0.400000X0.200000X-0.400000X-0.200000X0*%
%ADD41O,1.700000X1.100000*%
%ADD42RoundRect,0.150000X-0.150000X0.650000X-0.150000X-0.650000X0.150000X-0.650000X0.150000X0.650000X0*%
%ADD43R,3.200000X2.400000*%
%ADD44R,2.000000X1.780000*%
%ADD45R,1.900000X1.000000*%
%ADD46RoundRect,0.250000X-1.000000X-0.650000X1.000000X-0.650000X1.000000X0.650000X-1.000000X0.650000X0*%
%ADD47FreePoly0,0.000000*%
%ADD48FreePoly1,0.000000*%
G04 APERTURE END LIST*
D10*
X172118365Y-103804000D02*
G75*
G03*
X171718097Y-103804000I-200134J0D01*
G01*
X171718097Y-103804000D02*
G75*
G03*
X172118365Y-103804000I200134J0D01*
G01*
X173643634Y-107869269D02*
G75*
G03*
X173243366Y-107869269I-200134J0D01*
G01*
X173243366Y-107869269D02*
G75*
G03*
X173643634Y-107869269I200134J0D01*
G01*
X175038365Y-107994000D02*
G75*
G03*
X174638097Y-107994000I-200134J0D01*
G01*
X174638097Y-107994000D02*
G75*
G03*
X175038365Y-107994000I200134J0D01*
G01*
X172248365Y-111804000D02*
G75*
G03*
X171848097Y-111804000I-200134J0D01*
G01*
X171848097Y-111804000D02*
G75*
G03*
X172248365Y-111804000I200134J0D01*
G01*
D11*
%TO.C,H3*%
X189318500Y-136059000D03*
%TD*%
%TO.C,H1*%
X135978500Y-89069000D03*
%TD*%
%TO.C,H2*%
X189318500Y-89069000D03*
%TD*%
D12*
%TO.C,J4*%
X167347500Y-90847000D03*
D13*
X167347500Y-88307000D03*
X169887500Y-90847000D03*
X169887500Y-88307000D03*
X172427500Y-90847000D03*
X172427500Y-88307000D03*
X174967500Y-90847000D03*
X174967500Y-88307000D03*
X177507500Y-90847000D03*
X177507500Y-88307000D03*
%TD*%
D14*
%TO.C,J11*%
X148561500Y-77258000D03*
D15*
X151101500Y-77258000D03*
X153641500Y-77258000D03*
X156181500Y-77258000D03*
%TD*%
D16*
%TO.C,J3*%
X113987500Y-139107000D03*
X111447500Y-139107000D03*
%TD*%
D11*
%TO.C,H4*%
X135978500Y-136059000D03*
%TD*%
%TO.C,H7*%
X189318500Y-47667000D03*
%TD*%
%TO.C,H5*%
X102704500Y-47667000D03*
%TD*%
%TO.C,H6*%
X102704500Y-74845000D03*
%TD*%
%TO.C,H8*%
X189318500Y-74845000D03*
%TD*%
D14*
%TO.C,J13*%
X135343500Y-125518000D03*
D15*
X135343500Y-128058000D03*
X137883500Y-125518000D03*
X137883500Y-128058000D03*
X140423500Y-125518000D03*
X140423500Y-128058000D03*
X142963500Y-125518000D03*
X142963500Y-128058000D03*
X145503500Y-125518000D03*
X145503500Y-128058000D03*
%TD*%
D14*
%TO.C,J12*%
X137629500Y-76115000D03*
D15*
X137629500Y-73575000D03*
X135089500Y-76115000D03*
X135089500Y-73575000D03*
X132549500Y-76115000D03*
X132549500Y-73575000D03*
X130009500Y-76115000D03*
X130009500Y-73575000D03*
X127469500Y-76115000D03*
X127469500Y-73575000D03*
%TD*%
D17*
%TO.C,J1*%
X152366500Y-90710900D03*
D18*
X152366500Y-86530900D03*
D17*
X143726500Y-90710900D03*
D18*
X143726500Y-86530900D03*
%TD*%
D19*
%TO.C,SW3*%
X106038500Y-68406000D03*
X106038500Y-54106000D03*
X101038500Y-68406000D03*
X101038500Y-54106000D03*
%TD*%
D20*
%TO.C,D5*%
X101942500Y-136162000D03*
X101942500Y-133162000D03*
%TD*%
D19*
%TO.C,SW6*%
X185929500Y-54106000D03*
X185929500Y-68406000D03*
X190929500Y-54106000D03*
X190929500Y-68406000D03*
%TD*%
D21*
%TO.C,SW15*%
X142328500Y-123232000D03*
X148328500Y-123232000D03*
X142328500Y-119482000D03*
X148328500Y-119482000D03*
%TD*%
D22*
%TO.C,TP20*%
X170268500Y-96562000D03*
%TD*%
D23*
%TO.C,L1*%
X191601500Y-112691000D03*
X181701500Y-112691000D03*
%TD*%
D24*
%TO.C,U4*%
X119026500Y-128825500D03*
X119976500Y-128825500D03*
X120926500Y-128825500D03*
X120926500Y-131100500D03*
X119976500Y-131100500D03*
X119026500Y-131100500D03*
%TD*%
D22*
%TO.C,TP37*%
X114261500Y-85259000D03*
%TD*%
D25*
%TO.C,SW4*%
X108889500Y-51310000D03*
X123189500Y-51310000D03*
X108889500Y-46310000D03*
X123189500Y-46310000D03*
%TD*%
D21*
%TO.C,SW9*%
X139867500Y-110562000D03*
X133867500Y-110562000D03*
X139867500Y-114312000D03*
X133867500Y-114312000D03*
%TD*%
D26*
%TO.C,C17*%
X120116500Y-133138000D03*
X118566500Y-133138000D03*
%TD*%
D27*
%TO.C,R26*%
X120381000Y-135805000D03*
X118556000Y-135805000D03*
%TD*%
D28*
%TO.C,R19*%
X106745000Y-123486000D03*
X108570000Y-123486000D03*
%TD*%
D27*
%TO.C,R29*%
X122540000Y-100880000D03*
X120715000Y-100880000D03*
%TD*%
D29*
%TO.C,J7*%
X169506500Y-130090000D03*
X168236500Y-130090000D03*
X166966500Y-130090000D03*
X165696500Y-130090000D03*
X164426500Y-130090000D03*
%TD*%
D22*
%TO.C,T42*%
X154686000Y-101346000D03*
%TD*%
D30*
%TO.C,D3*%
X191604500Y-104404000D03*
X191604500Y-100404000D03*
%TD*%
D31*
%TO.C,Q1*%
X114937500Y-127143500D03*
D32*
X115904000Y-127143500D03*
D31*
X116887500Y-127143500D03*
X116887500Y-132868500D03*
D32*
X115921000Y-132868500D03*
D31*
X114937500Y-132868500D03*
%TD*%
D33*
%TO.C,R15*%
X104863500Y-135701500D03*
X104863500Y-133876500D03*
%TD*%
D27*
%TO.C,R32*%
X122540000Y-87926000D03*
X120715000Y-87926000D03*
%TD*%
D19*
%TO.C,SW2*%
X126112500Y-53979000D03*
X126112500Y-68279000D03*
X131112500Y-53979000D03*
X131112500Y-68279000D03*
%TD*%
D21*
%TO.C,SW13*%
X122811500Y-107006000D03*
X116811500Y-107006000D03*
X122811500Y-110756000D03*
X116811500Y-110756000D03*
%TD*%
D20*
%TO.C,D9*%
X121627500Y-93363000D03*
X121627500Y-90363000D03*
%TD*%
D22*
%TO.C,TP5*%
X104863500Y-131995000D03*
%TD*%
D21*
%TO.C,SW7*%
X133867500Y-107708000D03*
X139867500Y-107708000D03*
X133867500Y-103958000D03*
X139867500Y-103958000D03*
%TD*%
%TO.C,SW8*%
X139867500Y-117166000D03*
X133867500Y-117166000D03*
X139867500Y-120916000D03*
X133867500Y-120916000D03*
%TD*%
D22*
%TO.C,TP19*%
X168236500Y-96562000D03*
%TD*%
D20*
%TO.C,D6*%
X101942500Y-127828000D03*
X101942500Y-130828000D03*
%TD*%
D22*
%TO.C,TP33*%
X104863500Y-85894000D03*
%TD*%
D34*
%TO.C,C16*%
X114134500Y-136628000D03*
X114134500Y-134728000D03*
%TD*%
D35*
%TO.C,J2*%
X104162500Y-120811000D03*
D36*
X104162500Y-118791000D03*
D37*
X104162500Y-117561000D03*
D38*
X104162500Y-119811000D03*
D39*
X104162500Y-121831000D03*
D40*
X104162500Y-123061000D03*
D41*
X100282500Y-124631000D03*
X104082500Y-124631000D03*
X100282500Y-115991000D03*
X104082500Y-115991000D03*
%TD*%
D27*
%TO.C,R31*%
X122540000Y-98467000D03*
X120715000Y-98467000D03*
%TD*%
D21*
%TO.C,SW16*%
X140248500Y-95286000D03*
X134248500Y-95286000D03*
X140248500Y-99036000D03*
X134248500Y-99036000D03*
%TD*%
D22*
%TO.C,TP38*%
X124421500Y-100753000D03*
%TD*%
D42*
%TO.C,U3*%
X108292500Y-127186000D03*
D43*
X110197500Y-129836000D03*
D42*
X109562500Y-127186000D03*
X110832500Y-127186000D03*
X112102500Y-127186000D03*
X112102500Y-132486000D03*
X110832500Y-132486000D03*
X109562500Y-132486000D03*
X108292500Y-132486000D03*
%TD*%
D27*
%TO.C,R30*%
X122540000Y-103293000D03*
X120715000Y-103293000D03*
%TD*%
D19*
%TO.C,SW14*%
X114691500Y-101934000D03*
X114691500Y-87634000D03*
X109691500Y-101934000D03*
X109691500Y-87634000D03*
%TD*%
D21*
%TO.C,SW12*%
X107647500Y-107006000D03*
X101647500Y-107006000D03*
X107647500Y-110756000D03*
X101647500Y-110756000D03*
%TD*%
D22*
%TO.C,TP18*%
X177126500Y-95800000D03*
%TD*%
%TO.C,TP35*%
X102831500Y-85894000D03*
%TD*%
D21*
%TO.C,SW17*%
X115150543Y-108687000D03*
X109150543Y-108687000D03*
X115150543Y-112437000D03*
X109150543Y-112437000D03*
%TD*%
D44*
%TO.C,SW11*%
X124319500Y-115104000D03*
X124319500Y-117644000D03*
X124319500Y-120184000D03*
X124319500Y-122724000D03*
X112839500Y-122724000D03*
X112839500Y-120184000D03*
X112839500Y-117644000D03*
X112839500Y-115104000D03*
%TD*%
D45*
%TO.C,J8*%
X177886500Y-117898000D03*
X174586500Y-115358000D03*
X177886500Y-112818000D03*
X174586500Y-110278000D03*
%TD*%
D27*
%TO.C,R27*%
X122540000Y-96054000D03*
X120715000Y-96054000D03*
%TD*%
D46*
%TO.C,D10*%
X180176243Y-99610000D03*
X184176243Y-99610000D03*
%TD*%
D22*
%TO.C,TP17*%
X179158500Y-95800000D03*
%TD*%
%TO.C,TP36*%
X124421500Y-105071000D03*
%TD*%
D33*
%TO.C,R18*%
X104863500Y-130113500D03*
X104863500Y-128288500D03*
%TD*%
D44*
%TO.C,SW10*%
X180632500Y-128566000D03*
X180632500Y-126026000D03*
X180632500Y-123486000D03*
X180632500Y-120946000D03*
X192112500Y-120946000D03*
X192112500Y-123486000D03*
X192112500Y-126026000D03*
X192112500Y-128566000D03*
%TD*%
D47*
%TO.C,CS1*%
X154430500Y-112945000D03*
D48*
X155880500Y-112945000D03*
%TD*%
D19*
%TO.C,SW5*%
X173356500Y-60202000D03*
X173356500Y-74502000D03*
X178356500Y-60202000D03*
X178356500Y-74502000D03*
%TD*%
D22*
%TO.C,TP23*%
X179158500Y-93133000D03*
%TD*%
D25*
%TO.C,SW1*%
X123189500Y-71202000D03*
X108889500Y-71202000D03*
X123189500Y-76202000D03*
X108889500Y-76202000D03*
%TD*%
D22*
%TO.C,TP34*%
X107911500Y-116120000D03*
%TD*%
D27*
%TO.C,R23*%
X120508000Y-125899000D03*
X118683000Y-125899000D03*
%TD*%
D22*
%TO.C,TP39*%
X148805500Y-117390000D03*
%TD*%
D26*
%TO.C,C6*%
X187172500Y-105198000D03*
X185622500Y-105198000D03*
%TD*%
D33*
%TO.C,R35*%
X143725500Y-99252500D03*
X143725500Y-97427500D03*
%TD*%
D26*
%TO.C,C15*%
X111696500Y-125045000D03*
X110146500Y-125045000D03*
%TD*%
M02*
