%TF.GenerationSoftware,KiCad,Pcbnew,7.0.10*%
%TF.CreationDate,2024-05-30T17:48:34+05:30*%
%TF.ProjectId,Stepper Module,53746570-7065-4722-904d-6f64756c652e,rev?*%
%TF.SameCoordinates,Original*%
%TF.FileFunction,Legend,Top*%
%TF.FilePolarity,Positive*%
%FSLAX46Y46*%
G04 Gerber Fmt 4.6, Leading zero omitted, Abs format (unit mm)*
G04 Created by KiCad (PCBNEW 7.0.10) date 2024-05-30 17:48:34*
%MOMM*%
%LPD*%
G01*
G04 APERTURE LIST*
%ADD10C,0.150000*%
%ADD11C,0.160000*%
%ADD12C,0.120000*%
G04 APERTURE END LIST*
D10*
X162735833Y-114320580D02*
X162688214Y-114368200D01*
X162688214Y-114368200D02*
X162545357Y-114415819D01*
X162545357Y-114415819D02*
X162450119Y-114415819D01*
X162450119Y-114415819D02*
X162307262Y-114368200D01*
X162307262Y-114368200D02*
X162212024Y-114272961D01*
X162212024Y-114272961D02*
X162164405Y-114177723D01*
X162164405Y-114177723D02*
X162116786Y-113987247D01*
X162116786Y-113987247D02*
X162116786Y-113844390D01*
X162116786Y-113844390D02*
X162164405Y-113653914D01*
X162164405Y-113653914D02*
X162212024Y-113558676D01*
X162212024Y-113558676D02*
X162307262Y-113463438D01*
X162307262Y-113463438D02*
X162450119Y-113415819D01*
X162450119Y-113415819D02*
X162545357Y-113415819D01*
X162545357Y-113415819D02*
X162688214Y-113463438D01*
X162688214Y-113463438D02*
X162735833Y-113511057D01*
X163069167Y-113415819D02*
X163688214Y-113415819D01*
X163688214Y-113415819D02*
X163354881Y-113796771D01*
X163354881Y-113796771D02*
X163497738Y-113796771D01*
X163497738Y-113796771D02*
X163592976Y-113844390D01*
X163592976Y-113844390D02*
X163640595Y-113892009D01*
X163640595Y-113892009D02*
X163688214Y-113987247D01*
X163688214Y-113987247D02*
X163688214Y-114225342D01*
X163688214Y-114225342D02*
X163640595Y-114320580D01*
X163640595Y-114320580D02*
X163592976Y-114368200D01*
X163592976Y-114368200D02*
X163497738Y-114415819D01*
X163497738Y-114415819D02*
X163212024Y-114415819D01*
X163212024Y-114415819D02*
X163116786Y-114368200D01*
X163116786Y-114368200D02*
X163069167Y-114320580D01*
X182885062Y-112444857D02*
X182408871Y-112778190D01*
X182885062Y-113016285D02*
X181885062Y-113016285D01*
X181885062Y-113016285D02*
X181885062Y-112635333D01*
X181885062Y-112635333D02*
X181932681Y-112540095D01*
X181932681Y-112540095D02*
X181980300Y-112492476D01*
X181980300Y-112492476D02*
X182075538Y-112444857D01*
X182075538Y-112444857D02*
X182218395Y-112444857D01*
X182218395Y-112444857D02*
X182313633Y-112492476D01*
X182313633Y-112492476D02*
X182361252Y-112540095D01*
X182361252Y-112540095D02*
X182408871Y-112635333D01*
X182408871Y-112635333D02*
X182408871Y-113016285D01*
X182885062Y-111492476D02*
X182885062Y-112063904D01*
X182885062Y-111778190D02*
X181885062Y-111778190D01*
X181885062Y-111778190D02*
X182027919Y-111873428D01*
X182027919Y-111873428D02*
X182123157Y-111968666D01*
X182123157Y-111968666D02*
X182170776Y-112063904D01*
X182885062Y-110540095D02*
X182885062Y-111111523D01*
X182885062Y-110825809D02*
X181885062Y-110825809D01*
X181885062Y-110825809D02*
X182027919Y-110921047D01*
X182027919Y-110921047D02*
X182123157Y-111016285D01*
X182123157Y-111016285D02*
X182170776Y-111111523D01*
X146641642Y-120543580D02*
X146594023Y-120591200D01*
X146594023Y-120591200D02*
X146451166Y-120638819D01*
X146451166Y-120638819D02*
X146355928Y-120638819D01*
X146355928Y-120638819D02*
X146213071Y-120591200D01*
X146213071Y-120591200D02*
X146117833Y-120495961D01*
X146117833Y-120495961D02*
X146070214Y-120400723D01*
X146070214Y-120400723D02*
X146022595Y-120210247D01*
X146022595Y-120210247D02*
X146022595Y-120067390D01*
X146022595Y-120067390D02*
X146070214Y-119876914D01*
X146070214Y-119876914D02*
X146117833Y-119781676D01*
X146117833Y-119781676D02*
X146213071Y-119686438D01*
X146213071Y-119686438D02*
X146355928Y-119638819D01*
X146355928Y-119638819D02*
X146451166Y-119638819D01*
X146451166Y-119638819D02*
X146594023Y-119686438D01*
X146594023Y-119686438D02*
X146641642Y-119734057D01*
X147594023Y-120638819D02*
X147022595Y-120638819D01*
X147308309Y-120638819D02*
X147308309Y-119638819D01*
X147308309Y-119638819D02*
X147213071Y-119781676D01*
X147213071Y-119781676D02*
X147117833Y-119876914D01*
X147117833Y-119876914D02*
X147022595Y-119924533D01*
X147927357Y-119638819D02*
X148546404Y-119638819D01*
X148546404Y-119638819D02*
X148213071Y-120019771D01*
X148213071Y-120019771D02*
X148355928Y-120019771D01*
X148355928Y-120019771D02*
X148451166Y-120067390D01*
X148451166Y-120067390D02*
X148498785Y-120115009D01*
X148498785Y-120115009D02*
X148546404Y-120210247D01*
X148546404Y-120210247D02*
X148546404Y-120448342D01*
X148546404Y-120448342D02*
X148498785Y-120543580D01*
X148498785Y-120543580D02*
X148451166Y-120591200D01*
X148451166Y-120591200D02*
X148355928Y-120638819D01*
X148355928Y-120638819D02*
X148070214Y-120638819D01*
X148070214Y-120638819D02*
X147974976Y-120591200D01*
X147974976Y-120591200D02*
X147927357Y-120543580D01*
X161084833Y-103366819D02*
X160751500Y-102890628D01*
X160513405Y-103366819D02*
X160513405Y-102366819D01*
X160513405Y-102366819D02*
X160894357Y-102366819D01*
X160894357Y-102366819D02*
X160989595Y-102414438D01*
X160989595Y-102414438D02*
X161037214Y-102462057D01*
X161037214Y-102462057D02*
X161084833Y-102557295D01*
X161084833Y-102557295D02*
X161084833Y-102700152D01*
X161084833Y-102700152D02*
X161037214Y-102795390D01*
X161037214Y-102795390D02*
X160989595Y-102843009D01*
X160989595Y-102843009D02*
X160894357Y-102890628D01*
X160894357Y-102890628D02*
X160513405Y-102890628D01*
X162037214Y-103366819D02*
X161465786Y-103366819D01*
X161751500Y-103366819D02*
X161751500Y-102366819D01*
X161751500Y-102366819D02*
X161656262Y-102509676D01*
X161656262Y-102509676D02*
X161561024Y-102604914D01*
X161561024Y-102604914D02*
X161465786Y-102652533D01*
X180245319Y-98659904D02*
X181054842Y-98659904D01*
X181054842Y-98659904D02*
X181150080Y-98612285D01*
X181150080Y-98612285D02*
X181197700Y-98564666D01*
X181197700Y-98564666D02*
X181245319Y-98469428D01*
X181245319Y-98469428D02*
X181245319Y-98278952D01*
X181245319Y-98278952D02*
X181197700Y-98183714D01*
X181197700Y-98183714D02*
X181150080Y-98136095D01*
X181150080Y-98136095D02*
X181054842Y-98088476D01*
X181054842Y-98088476D02*
X180245319Y-98088476D01*
X181245319Y-97088476D02*
X181245319Y-97659904D01*
X181245319Y-97374190D02*
X180245319Y-97374190D01*
X180245319Y-97374190D02*
X180388176Y-97469428D01*
X180388176Y-97469428D02*
X180483414Y-97564666D01*
X180483414Y-97564666D02*
X180531033Y-97659904D01*
X168236595Y-117098819D02*
X168236595Y-117908342D01*
X168236595Y-117908342D02*
X168284214Y-118003580D01*
X168284214Y-118003580D02*
X168331833Y-118051200D01*
X168331833Y-118051200D02*
X168427071Y-118098819D01*
X168427071Y-118098819D02*
X168617547Y-118098819D01*
X168617547Y-118098819D02*
X168712785Y-118051200D01*
X168712785Y-118051200D02*
X168760404Y-118003580D01*
X168760404Y-118003580D02*
X168808023Y-117908342D01*
X168808023Y-117908342D02*
X168808023Y-117098819D01*
X169712785Y-117098819D02*
X169522309Y-117098819D01*
X169522309Y-117098819D02*
X169427071Y-117146438D01*
X169427071Y-117146438D02*
X169379452Y-117194057D01*
X169379452Y-117194057D02*
X169284214Y-117336914D01*
X169284214Y-117336914D02*
X169236595Y-117527390D01*
X169236595Y-117527390D02*
X169236595Y-117908342D01*
X169236595Y-117908342D02*
X169284214Y-118003580D01*
X169284214Y-118003580D02*
X169331833Y-118051200D01*
X169331833Y-118051200D02*
X169427071Y-118098819D01*
X169427071Y-118098819D02*
X169617547Y-118098819D01*
X169617547Y-118098819D02*
X169712785Y-118051200D01*
X169712785Y-118051200D02*
X169760404Y-118003580D01*
X169760404Y-118003580D02*
X169808023Y-117908342D01*
X169808023Y-117908342D02*
X169808023Y-117670247D01*
X169808023Y-117670247D02*
X169760404Y-117575009D01*
X169760404Y-117575009D02*
X169712785Y-117527390D01*
X169712785Y-117527390D02*
X169617547Y-117479771D01*
X169617547Y-117479771D02*
X169427071Y-117479771D01*
X169427071Y-117479771D02*
X169331833Y-117527390D01*
X169331833Y-117527390D02*
X169284214Y-117575009D01*
X169284214Y-117575009D02*
X169236595Y-117670247D01*
X156088062Y-120922094D02*
X155088062Y-120922094D01*
X155088062Y-120922094D02*
X155088062Y-120683999D01*
X155088062Y-120683999D02*
X155135681Y-120541142D01*
X155135681Y-120541142D02*
X155230919Y-120445904D01*
X155230919Y-120445904D02*
X155326157Y-120398285D01*
X155326157Y-120398285D02*
X155516633Y-120350666D01*
X155516633Y-120350666D02*
X155659490Y-120350666D01*
X155659490Y-120350666D02*
X155849966Y-120398285D01*
X155849966Y-120398285D02*
X155945204Y-120445904D01*
X155945204Y-120445904D02*
X156040443Y-120541142D01*
X156040443Y-120541142D02*
X156088062Y-120683999D01*
X156088062Y-120683999D02*
X156088062Y-120922094D01*
X155088062Y-120017332D02*
X155088062Y-119350666D01*
X155088062Y-119350666D02*
X156088062Y-119779237D01*
X152099642Y-106446580D02*
X152052023Y-106494200D01*
X152052023Y-106494200D02*
X151909166Y-106541819D01*
X151909166Y-106541819D02*
X151813928Y-106541819D01*
X151813928Y-106541819D02*
X151671071Y-106494200D01*
X151671071Y-106494200D02*
X151575833Y-106398961D01*
X151575833Y-106398961D02*
X151528214Y-106303723D01*
X151528214Y-106303723D02*
X151480595Y-106113247D01*
X151480595Y-106113247D02*
X151480595Y-105970390D01*
X151480595Y-105970390D02*
X151528214Y-105779914D01*
X151528214Y-105779914D02*
X151575833Y-105684676D01*
X151575833Y-105684676D02*
X151671071Y-105589438D01*
X151671071Y-105589438D02*
X151813928Y-105541819D01*
X151813928Y-105541819D02*
X151909166Y-105541819D01*
X151909166Y-105541819D02*
X152052023Y-105589438D01*
X152052023Y-105589438D02*
X152099642Y-105637057D01*
X152480595Y-105637057D02*
X152528214Y-105589438D01*
X152528214Y-105589438D02*
X152623452Y-105541819D01*
X152623452Y-105541819D02*
X152861547Y-105541819D01*
X152861547Y-105541819D02*
X152956785Y-105589438D01*
X152956785Y-105589438D02*
X153004404Y-105637057D01*
X153004404Y-105637057D02*
X153052023Y-105732295D01*
X153052023Y-105732295D02*
X153052023Y-105827533D01*
X153052023Y-105827533D02*
X153004404Y-105970390D01*
X153004404Y-105970390D02*
X152432976Y-106541819D01*
X152432976Y-106541819D02*
X153052023Y-106541819D01*
X153623452Y-105970390D02*
X153528214Y-105922771D01*
X153528214Y-105922771D02*
X153480595Y-105875152D01*
X153480595Y-105875152D02*
X153432976Y-105779914D01*
X153432976Y-105779914D02*
X153432976Y-105732295D01*
X153432976Y-105732295D02*
X153480595Y-105637057D01*
X153480595Y-105637057D02*
X153528214Y-105589438D01*
X153528214Y-105589438D02*
X153623452Y-105541819D01*
X153623452Y-105541819D02*
X153813928Y-105541819D01*
X153813928Y-105541819D02*
X153909166Y-105589438D01*
X153909166Y-105589438D02*
X153956785Y-105637057D01*
X153956785Y-105637057D02*
X154004404Y-105732295D01*
X154004404Y-105732295D02*
X154004404Y-105779914D01*
X154004404Y-105779914D02*
X153956785Y-105875152D01*
X153956785Y-105875152D02*
X153909166Y-105922771D01*
X153909166Y-105922771D02*
X153813928Y-105970390D01*
X153813928Y-105970390D02*
X153623452Y-105970390D01*
X153623452Y-105970390D02*
X153528214Y-106018009D01*
X153528214Y-106018009D02*
X153480595Y-106065628D01*
X153480595Y-106065628D02*
X153432976Y-106160866D01*
X153432976Y-106160866D02*
X153432976Y-106351342D01*
X153432976Y-106351342D02*
X153480595Y-106446580D01*
X153480595Y-106446580D02*
X153528214Y-106494200D01*
X153528214Y-106494200D02*
X153623452Y-106541819D01*
X153623452Y-106541819D02*
X153813928Y-106541819D01*
X153813928Y-106541819D02*
X153909166Y-106494200D01*
X153909166Y-106494200D02*
X153956785Y-106446580D01*
X153956785Y-106446580D02*
X154004404Y-106351342D01*
X154004404Y-106351342D02*
X154004404Y-106160866D01*
X154004404Y-106160866D02*
X153956785Y-106065628D01*
X153956785Y-106065628D02*
X153909166Y-106018009D01*
X153909166Y-106018009D02*
X153813928Y-105970390D01*
X143419823Y-98093857D02*
X143467443Y-98141476D01*
X143467443Y-98141476D02*
X143515062Y-98284333D01*
X143515062Y-98284333D02*
X143515062Y-98379571D01*
X143515062Y-98379571D02*
X143467443Y-98522428D01*
X143467443Y-98522428D02*
X143372204Y-98617666D01*
X143372204Y-98617666D02*
X143276966Y-98665285D01*
X143276966Y-98665285D02*
X143086490Y-98712904D01*
X143086490Y-98712904D02*
X142943633Y-98712904D01*
X142943633Y-98712904D02*
X142753157Y-98665285D01*
X142753157Y-98665285D02*
X142657919Y-98617666D01*
X142657919Y-98617666D02*
X142562681Y-98522428D01*
X142562681Y-98522428D02*
X142515062Y-98379571D01*
X142515062Y-98379571D02*
X142515062Y-98284333D01*
X142515062Y-98284333D02*
X142562681Y-98141476D01*
X142562681Y-98141476D02*
X142610300Y-98093857D01*
X143515062Y-97141476D02*
X143515062Y-97712904D01*
X143515062Y-97427190D02*
X142515062Y-97427190D01*
X142515062Y-97427190D02*
X142657919Y-97522428D01*
X142657919Y-97522428D02*
X142753157Y-97617666D01*
X142753157Y-97617666D02*
X142800776Y-97712904D01*
X143515062Y-96665285D02*
X143515062Y-96474809D01*
X143515062Y-96474809D02*
X143467443Y-96379571D01*
X143467443Y-96379571D02*
X143419823Y-96331952D01*
X143419823Y-96331952D02*
X143276966Y-96236714D01*
X143276966Y-96236714D02*
X143086490Y-96189095D01*
X143086490Y-96189095D02*
X142705538Y-96189095D01*
X142705538Y-96189095D02*
X142610300Y-96236714D01*
X142610300Y-96236714D02*
X142562681Y-96284333D01*
X142562681Y-96284333D02*
X142515062Y-96379571D01*
X142515062Y-96379571D02*
X142515062Y-96570047D01*
X142515062Y-96570047D02*
X142562681Y-96665285D01*
X142562681Y-96665285D02*
X142610300Y-96712904D01*
X142610300Y-96712904D02*
X142705538Y-96760523D01*
X142705538Y-96760523D02*
X142943633Y-96760523D01*
X142943633Y-96760523D02*
X143038871Y-96712904D01*
X143038871Y-96712904D02*
X143086490Y-96665285D01*
X143086490Y-96665285D02*
X143134109Y-96570047D01*
X143134109Y-96570047D02*
X143134109Y-96379571D01*
X143134109Y-96379571D02*
X143086490Y-96284333D01*
X143086490Y-96284333D02*
X143038871Y-96236714D01*
X143038871Y-96236714D02*
X142943633Y-96189095D01*
X151616909Y-119130819D02*
X151616909Y-119845104D01*
X151616909Y-119845104D02*
X151569290Y-119987961D01*
X151569290Y-119987961D02*
X151474052Y-120083200D01*
X151474052Y-120083200D02*
X151331195Y-120130819D01*
X151331195Y-120130819D02*
X151235957Y-120130819D01*
X152521671Y-119130819D02*
X152331195Y-119130819D01*
X152331195Y-119130819D02*
X152235957Y-119178438D01*
X152235957Y-119178438D02*
X152188338Y-119226057D01*
X152188338Y-119226057D02*
X152093100Y-119368914D01*
X152093100Y-119368914D02*
X152045481Y-119559390D01*
X152045481Y-119559390D02*
X152045481Y-119940342D01*
X152045481Y-119940342D02*
X152093100Y-120035580D01*
X152093100Y-120035580D02*
X152140719Y-120083200D01*
X152140719Y-120083200D02*
X152235957Y-120130819D01*
X152235957Y-120130819D02*
X152426433Y-120130819D01*
X152426433Y-120130819D02*
X152521671Y-120083200D01*
X152521671Y-120083200D02*
X152569290Y-120035580D01*
X152569290Y-120035580D02*
X152616909Y-119940342D01*
X152616909Y-119940342D02*
X152616909Y-119702247D01*
X152616909Y-119702247D02*
X152569290Y-119607009D01*
X152569290Y-119607009D02*
X152521671Y-119559390D01*
X152521671Y-119559390D02*
X152426433Y-119511771D01*
X152426433Y-119511771D02*
X152235957Y-119511771D01*
X152235957Y-119511771D02*
X152140719Y-119559390D01*
X152140719Y-119559390D02*
X152093100Y-119607009D01*
X152093100Y-119607009D02*
X152045481Y-119702247D01*
X147777580Y-101226857D02*
X147825200Y-101274476D01*
X147825200Y-101274476D02*
X147872819Y-101417333D01*
X147872819Y-101417333D02*
X147872819Y-101512571D01*
X147872819Y-101512571D02*
X147825200Y-101655428D01*
X147825200Y-101655428D02*
X147729961Y-101750666D01*
X147729961Y-101750666D02*
X147634723Y-101798285D01*
X147634723Y-101798285D02*
X147444247Y-101845904D01*
X147444247Y-101845904D02*
X147301390Y-101845904D01*
X147301390Y-101845904D02*
X147110914Y-101798285D01*
X147110914Y-101798285D02*
X147015676Y-101750666D01*
X147015676Y-101750666D02*
X146920438Y-101655428D01*
X146920438Y-101655428D02*
X146872819Y-101512571D01*
X146872819Y-101512571D02*
X146872819Y-101417333D01*
X146872819Y-101417333D02*
X146920438Y-101274476D01*
X146920438Y-101274476D02*
X146968057Y-101226857D01*
X146968057Y-100845904D02*
X146920438Y-100798285D01*
X146920438Y-100798285D02*
X146872819Y-100703047D01*
X146872819Y-100703047D02*
X146872819Y-100464952D01*
X146872819Y-100464952D02*
X146920438Y-100369714D01*
X146920438Y-100369714D02*
X146968057Y-100322095D01*
X146968057Y-100322095D02*
X147063295Y-100274476D01*
X147063295Y-100274476D02*
X147158533Y-100274476D01*
X147158533Y-100274476D02*
X147301390Y-100322095D01*
X147301390Y-100322095D02*
X147872819Y-100893523D01*
X147872819Y-100893523D02*
X147872819Y-100274476D01*
X146872819Y-99655428D02*
X146872819Y-99560190D01*
X146872819Y-99560190D02*
X146920438Y-99464952D01*
X146920438Y-99464952D02*
X146968057Y-99417333D01*
X146968057Y-99417333D02*
X147063295Y-99369714D01*
X147063295Y-99369714D02*
X147253771Y-99322095D01*
X147253771Y-99322095D02*
X147491866Y-99322095D01*
X147491866Y-99322095D02*
X147682342Y-99369714D01*
X147682342Y-99369714D02*
X147777580Y-99417333D01*
X147777580Y-99417333D02*
X147825200Y-99464952D01*
X147825200Y-99464952D02*
X147872819Y-99560190D01*
X147872819Y-99560190D02*
X147872819Y-99655428D01*
X147872819Y-99655428D02*
X147825200Y-99750666D01*
X147825200Y-99750666D02*
X147777580Y-99798285D01*
X147777580Y-99798285D02*
X147682342Y-99845904D01*
X147682342Y-99845904D02*
X147491866Y-99893523D01*
X147491866Y-99893523D02*
X147253771Y-99893523D01*
X147253771Y-99893523D02*
X147063295Y-99845904D01*
X147063295Y-99845904D02*
X146968057Y-99798285D01*
X146968057Y-99798285D02*
X146920438Y-99750666D01*
X146920438Y-99750666D02*
X146872819Y-99655428D01*
X160690319Y-101173666D02*
X160214128Y-101506999D01*
X160690319Y-101745094D02*
X159690319Y-101745094D01*
X159690319Y-101745094D02*
X159690319Y-101364142D01*
X159690319Y-101364142D02*
X159737938Y-101268904D01*
X159737938Y-101268904D02*
X159785557Y-101221285D01*
X159785557Y-101221285D02*
X159880795Y-101173666D01*
X159880795Y-101173666D02*
X160023652Y-101173666D01*
X160023652Y-101173666D02*
X160118890Y-101221285D01*
X160118890Y-101221285D02*
X160166509Y-101268904D01*
X160166509Y-101268904D02*
X160214128Y-101364142D01*
X160214128Y-101364142D02*
X160214128Y-101745094D01*
X159785557Y-100792713D02*
X159737938Y-100745094D01*
X159737938Y-100745094D02*
X159690319Y-100649856D01*
X159690319Y-100649856D02*
X159690319Y-100411761D01*
X159690319Y-100411761D02*
X159737938Y-100316523D01*
X159737938Y-100316523D02*
X159785557Y-100268904D01*
X159785557Y-100268904D02*
X159880795Y-100221285D01*
X159880795Y-100221285D02*
X159976033Y-100221285D01*
X159976033Y-100221285D02*
X160118890Y-100268904D01*
X160118890Y-100268904D02*
X160690319Y-100840332D01*
X160690319Y-100840332D02*
X160690319Y-100221285D01*
X180730166Y-94746819D02*
X180730166Y-95461104D01*
X180730166Y-95461104D02*
X180682547Y-95603961D01*
X180682547Y-95603961D02*
X180587309Y-95699200D01*
X180587309Y-95699200D02*
X180444452Y-95746819D01*
X180444452Y-95746819D02*
X180349214Y-95746819D01*
X181634928Y-95080152D02*
X181634928Y-95746819D01*
X181396833Y-94699200D02*
X181158738Y-95413485D01*
X181158738Y-95413485D02*
X181777785Y-95413485D01*
X144703385Y-114161819D02*
X144370052Y-113685628D01*
X144131957Y-114161819D02*
X144131957Y-113161819D01*
X144131957Y-113161819D02*
X144512909Y-113161819D01*
X144512909Y-113161819D02*
X144608147Y-113209438D01*
X144608147Y-113209438D02*
X144655766Y-113257057D01*
X144655766Y-113257057D02*
X144703385Y-113352295D01*
X144703385Y-113352295D02*
X144703385Y-113495152D01*
X144703385Y-113495152D02*
X144655766Y-113590390D01*
X144655766Y-113590390D02*
X144608147Y-113638009D01*
X144608147Y-113638009D02*
X144512909Y-113685628D01*
X144512909Y-113685628D02*
X144131957Y-113685628D01*
X145084338Y-113257057D02*
X145131957Y-113209438D01*
X145131957Y-113209438D02*
X145227195Y-113161819D01*
X145227195Y-113161819D02*
X145465290Y-113161819D01*
X145465290Y-113161819D02*
X145560528Y-113209438D01*
X145560528Y-113209438D02*
X145608147Y-113257057D01*
X145608147Y-113257057D02*
X145655766Y-113352295D01*
X145655766Y-113352295D02*
X145655766Y-113447533D01*
X145655766Y-113447533D02*
X145608147Y-113590390D01*
X145608147Y-113590390D02*
X145036719Y-114161819D01*
X145036719Y-114161819D02*
X145655766Y-114161819D01*
X146608147Y-114161819D02*
X146036719Y-114161819D01*
X146322433Y-114161819D02*
X146322433Y-113161819D01*
X146322433Y-113161819D02*
X146227195Y-113304676D01*
X146227195Y-113304676D02*
X146131957Y-113399914D01*
X146131957Y-113399914D02*
X146036719Y-113447533D01*
X160068833Y-113018819D02*
X159735500Y-112542628D01*
X159497405Y-113018819D02*
X159497405Y-112018819D01*
X159497405Y-112018819D02*
X159878357Y-112018819D01*
X159878357Y-112018819D02*
X159973595Y-112066438D01*
X159973595Y-112066438D02*
X160021214Y-112114057D01*
X160021214Y-112114057D02*
X160068833Y-112209295D01*
X160068833Y-112209295D02*
X160068833Y-112352152D01*
X160068833Y-112352152D02*
X160021214Y-112447390D01*
X160021214Y-112447390D02*
X159973595Y-112495009D01*
X159973595Y-112495009D02*
X159878357Y-112542628D01*
X159878357Y-112542628D02*
X159497405Y-112542628D01*
X160925976Y-112352152D02*
X160925976Y-113018819D01*
X160687881Y-111971200D02*
X160449786Y-112685485D01*
X160449786Y-112685485D02*
X161068833Y-112685485D01*
X136224642Y-118638580D02*
X136177023Y-118686200D01*
X136177023Y-118686200D02*
X136034166Y-118733819D01*
X136034166Y-118733819D02*
X135938928Y-118733819D01*
X135938928Y-118733819D02*
X135796071Y-118686200D01*
X135796071Y-118686200D02*
X135700833Y-118590961D01*
X135700833Y-118590961D02*
X135653214Y-118495723D01*
X135653214Y-118495723D02*
X135605595Y-118305247D01*
X135605595Y-118305247D02*
X135605595Y-118162390D01*
X135605595Y-118162390D02*
X135653214Y-117971914D01*
X135653214Y-117971914D02*
X135700833Y-117876676D01*
X135700833Y-117876676D02*
X135796071Y-117781438D01*
X135796071Y-117781438D02*
X135938928Y-117733819D01*
X135938928Y-117733819D02*
X136034166Y-117733819D01*
X136034166Y-117733819D02*
X136177023Y-117781438D01*
X136177023Y-117781438D02*
X136224642Y-117829057D01*
X137177023Y-118733819D02*
X136605595Y-118733819D01*
X136891309Y-118733819D02*
X136891309Y-117733819D01*
X136891309Y-117733819D02*
X136796071Y-117876676D01*
X136796071Y-117876676D02*
X136700833Y-117971914D01*
X136700833Y-117971914D02*
X136605595Y-118019533D01*
X138034166Y-118067152D02*
X138034166Y-118733819D01*
X137796071Y-117686200D02*
X137557976Y-118400485D01*
X137557976Y-118400485D02*
X138177023Y-118400485D01*
X160195833Y-110859819D02*
X159862500Y-110383628D01*
X159624405Y-110859819D02*
X159624405Y-109859819D01*
X159624405Y-109859819D02*
X160005357Y-109859819D01*
X160005357Y-109859819D02*
X160100595Y-109907438D01*
X160100595Y-109907438D02*
X160148214Y-109955057D01*
X160148214Y-109955057D02*
X160195833Y-110050295D01*
X160195833Y-110050295D02*
X160195833Y-110193152D01*
X160195833Y-110193152D02*
X160148214Y-110288390D01*
X160148214Y-110288390D02*
X160100595Y-110336009D01*
X160100595Y-110336009D02*
X160005357Y-110383628D01*
X160005357Y-110383628D02*
X159624405Y-110383628D01*
X160529167Y-109859819D02*
X161148214Y-109859819D01*
X161148214Y-109859819D02*
X160814881Y-110240771D01*
X160814881Y-110240771D02*
X160957738Y-110240771D01*
X160957738Y-110240771D02*
X161052976Y-110288390D01*
X161052976Y-110288390D02*
X161100595Y-110336009D01*
X161100595Y-110336009D02*
X161148214Y-110431247D01*
X161148214Y-110431247D02*
X161148214Y-110669342D01*
X161148214Y-110669342D02*
X161100595Y-110764580D01*
X161100595Y-110764580D02*
X161052976Y-110812200D01*
X161052976Y-110812200D02*
X160957738Y-110859819D01*
X160957738Y-110859819D02*
X160672024Y-110859819D01*
X160672024Y-110859819D02*
X160576786Y-110812200D01*
X160576786Y-110812200D02*
X160529167Y-110764580D01*
X155847147Y-75263180D02*
X155656671Y-75263180D01*
X155656671Y-75263180D02*
X155561433Y-75215561D01*
X155561433Y-75215561D02*
X155466195Y-75120323D01*
X155466195Y-75120323D02*
X155418576Y-74929847D01*
X155418576Y-74929847D02*
X155418576Y-74596514D01*
X155418576Y-74596514D02*
X155466195Y-74406038D01*
X155466195Y-74406038D02*
X155561433Y-74310800D01*
X155561433Y-74310800D02*
X155656671Y-74263180D01*
X155656671Y-74263180D02*
X155847147Y-74263180D01*
X155847147Y-74263180D02*
X155942385Y-74310800D01*
X155942385Y-74310800D02*
X156037623Y-74406038D01*
X156037623Y-74406038D02*
X156085242Y-74596514D01*
X156085242Y-74596514D02*
X156085242Y-74929847D01*
X156085242Y-74929847D02*
X156037623Y-75120323D01*
X156037623Y-75120323D02*
X155942385Y-75215561D01*
X155942385Y-75215561D02*
X155847147Y-75263180D01*
X154513814Y-74263180D02*
X154990004Y-74263180D01*
X154990004Y-74263180D02*
X154990004Y-75263180D01*
X154180480Y-74786990D02*
X153847147Y-74786990D01*
X153704290Y-74263180D02*
X154180480Y-74263180D01*
X154180480Y-74263180D02*
X154180480Y-75263180D01*
X154180480Y-75263180D02*
X153704290Y-75263180D01*
X153275718Y-74263180D02*
X153275718Y-75263180D01*
X153275718Y-75263180D02*
X153037623Y-75263180D01*
X153037623Y-75263180D02*
X152894766Y-75215561D01*
X152894766Y-75215561D02*
X152799528Y-75120323D01*
X152799528Y-75120323D02*
X152751909Y-75025085D01*
X152751909Y-75025085D02*
X152704290Y-74834609D01*
X152704290Y-74834609D02*
X152704290Y-74691752D01*
X152704290Y-74691752D02*
X152751909Y-74501276D01*
X152751909Y-74501276D02*
X152799528Y-74406038D01*
X152799528Y-74406038D02*
X152894766Y-74310800D01*
X152894766Y-74310800D02*
X153037623Y-74263180D01*
X153037623Y-74263180D02*
X153275718Y-74263180D01*
X151323337Y-75263180D02*
X151132861Y-75263180D01*
X151132861Y-75263180D02*
X151037623Y-75215561D01*
X151037623Y-75215561D02*
X150942385Y-75120323D01*
X150942385Y-75120323D02*
X150894766Y-74929847D01*
X150894766Y-74929847D02*
X150894766Y-74596514D01*
X150894766Y-74596514D02*
X150942385Y-74406038D01*
X150942385Y-74406038D02*
X151037623Y-74310800D01*
X151037623Y-74310800D02*
X151132861Y-74263180D01*
X151132861Y-74263180D02*
X151323337Y-74263180D01*
X151323337Y-74263180D02*
X151418575Y-74310800D01*
X151418575Y-74310800D02*
X151513813Y-74406038D01*
X151513813Y-74406038D02*
X151561432Y-74596514D01*
X151561432Y-74596514D02*
X151561432Y-74929847D01*
X151561432Y-74929847D02*
X151513813Y-75120323D01*
X151513813Y-75120323D02*
X151418575Y-75215561D01*
X151418575Y-75215561D02*
X151323337Y-75263180D01*
X150466194Y-75263180D02*
X150466194Y-74453657D01*
X150466194Y-74453657D02*
X150418575Y-74358419D01*
X150418575Y-74358419D02*
X150370956Y-74310800D01*
X150370956Y-74310800D02*
X150275718Y-74263180D01*
X150275718Y-74263180D02*
X150085242Y-74263180D01*
X150085242Y-74263180D02*
X149990004Y-74310800D01*
X149990004Y-74310800D02*
X149942385Y-74358419D01*
X149942385Y-74358419D02*
X149894766Y-74453657D01*
X149894766Y-74453657D02*
X149894766Y-75263180D01*
X149561432Y-75263180D02*
X148990004Y-75263180D01*
X149275718Y-74263180D02*
X149275718Y-75263180D01*
X135470595Y-96016819D02*
X135470595Y-96826342D01*
X135470595Y-96826342D02*
X135518214Y-96921580D01*
X135518214Y-96921580D02*
X135565833Y-96969200D01*
X135565833Y-96969200D02*
X135661071Y-97016819D01*
X135661071Y-97016819D02*
X135851547Y-97016819D01*
X135851547Y-97016819D02*
X135946785Y-96969200D01*
X135946785Y-96969200D02*
X135994404Y-96921580D01*
X135994404Y-96921580D02*
X136042023Y-96826342D01*
X136042023Y-96826342D02*
X136042023Y-96016819D01*
X136661071Y-96445390D02*
X136565833Y-96397771D01*
X136565833Y-96397771D02*
X136518214Y-96350152D01*
X136518214Y-96350152D02*
X136470595Y-96254914D01*
X136470595Y-96254914D02*
X136470595Y-96207295D01*
X136470595Y-96207295D02*
X136518214Y-96112057D01*
X136518214Y-96112057D02*
X136565833Y-96064438D01*
X136565833Y-96064438D02*
X136661071Y-96016819D01*
X136661071Y-96016819D02*
X136851547Y-96016819D01*
X136851547Y-96016819D02*
X136946785Y-96064438D01*
X136946785Y-96064438D02*
X136994404Y-96112057D01*
X136994404Y-96112057D02*
X137042023Y-96207295D01*
X137042023Y-96207295D02*
X137042023Y-96254914D01*
X137042023Y-96254914D02*
X136994404Y-96350152D01*
X136994404Y-96350152D02*
X136946785Y-96397771D01*
X136946785Y-96397771D02*
X136851547Y-96445390D01*
X136851547Y-96445390D02*
X136661071Y-96445390D01*
X136661071Y-96445390D02*
X136565833Y-96493009D01*
X136565833Y-96493009D02*
X136518214Y-96540628D01*
X136518214Y-96540628D02*
X136470595Y-96635866D01*
X136470595Y-96635866D02*
X136470595Y-96826342D01*
X136470595Y-96826342D02*
X136518214Y-96921580D01*
X136518214Y-96921580D02*
X136565833Y-96969200D01*
X136565833Y-96969200D02*
X136661071Y-97016819D01*
X136661071Y-97016819D02*
X136851547Y-97016819D01*
X136851547Y-97016819D02*
X136946785Y-96969200D01*
X136946785Y-96969200D02*
X136994404Y-96921580D01*
X136994404Y-96921580D02*
X137042023Y-96826342D01*
X137042023Y-96826342D02*
X137042023Y-96635866D01*
X137042023Y-96635866D02*
X136994404Y-96540628D01*
X136994404Y-96540628D02*
X136946785Y-96493009D01*
X136946785Y-96493009D02*
X136851547Y-96445390D01*
X114499404Y-137509133D02*
X113737500Y-137509133D01*
X114118452Y-137128180D02*
X114118452Y-137890085D01*
X111737499Y-137509133D02*
X110975595Y-137509133D01*
X109220929Y-139175990D02*
X109078072Y-139128371D01*
X109078072Y-139128371D02*
X109030453Y-139080752D01*
X109030453Y-139080752D02*
X108982834Y-138985514D01*
X108982834Y-138985514D02*
X108982834Y-138842657D01*
X108982834Y-138842657D02*
X109030453Y-138747419D01*
X109030453Y-138747419D02*
X109078072Y-138699800D01*
X109078072Y-138699800D02*
X109173310Y-138652180D01*
X109173310Y-138652180D02*
X109554262Y-138652180D01*
X109554262Y-138652180D02*
X109554262Y-139652180D01*
X109554262Y-139652180D02*
X109220929Y-139652180D01*
X109220929Y-139652180D02*
X109125691Y-139604561D01*
X109125691Y-139604561D02*
X109078072Y-139556942D01*
X109078072Y-139556942D02*
X109030453Y-139461704D01*
X109030453Y-139461704D02*
X109030453Y-139366466D01*
X109030453Y-139366466D02*
X109078072Y-139271228D01*
X109078072Y-139271228D02*
X109125691Y-139223609D01*
X109125691Y-139223609D02*
X109220929Y-139175990D01*
X109220929Y-139175990D02*
X109554262Y-139175990D01*
X108125691Y-138652180D02*
X108125691Y-139175990D01*
X108125691Y-139175990D02*
X108173310Y-139271228D01*
X108173310Y-139271228D02*
X108268548Y-139318847D01*
X108268548Y-139318847D02*
X108459024Y-139318847D01*
X108459024Y-139318847D02*
X108554262Y-139271228D01*
X108125691Y-138699800D02*
X108220929Y-138652180D01*
X108220929Y-138652180D02*
X108459024Y-138652180D01*
X108459024Y-138652180D02*
X108554262Y-138699800D01*
X108554262Y-138699800D02*
X108601881Y-138795038D01*
X108601881Y-138795038D02*
X108601881Y-138890276D01*
X108601881Y-138890276D02*
X108554262Y-138985514D01*
X108554262Y-138985514D02*
X108459024Y-139033133D01*
X108459024Y-139033133D02*
X108220929Y-139033133D01*
X108220929Y-139033133D02*
X108125691Y-139080752D01*
X107792357Y-139318847D02*
X107411405Y-139318847D01*
X107649500Y-139652180D02*
X107649500Y-138795038D01*
X107649500Y-138795038D02*
X107601881Y-138699800D01*
X107601881Y-138699800D02*
X107506643Y-138652180D01*
X107506643Y-138652180D02*
X107411405Y-138652180D01*
X107220928Y-139318847D02*
X106839976Y-139318847D01*
X107078071Y-139652180D02*
X107078071Y-138795038D01*
X107078071Y-138795038D02*
X107030452Y-138699800D01*
X107030452Y-138699800D02*
X106935214Y-138652180D01*
X106935214Y-138652180D02*
X106839976Y-138652180D01*
X106125690Y-138699800D02*
X106220928Y-138652180D01*
X106220928Y-138652180D02*
X106411404Y-138652180D01*
X106411404Y-138652180D02*
X106506642Y-138699800D01*
X106506642Y-138699800D02*
X106554261Y-138795038D01*
X106554261Y-138795038D02*
X106554261Y-139175990D01*
X106554261Y-139175990D02*
X106506642Y-139271228D01*
X106506642Y-139271228D02*
X106411404Y-139318847D01*
X106411404Y-139318847D02*
X106220928Y-139318847D01*
X106220928Y-139318847D02*
X106125690Y-139271228D01*
X106125690Y-139271228D02*
X106078071Y-139175990D01*
X106078071Y-139175990D02*
X106078071Y-139080752D01*
X106078071Y-139080752D02*
X106554261Y-138985514D01*
X105649499Y-138652180D02*
X105649499Y-139318847D01*
X105649499Y-139128371D02*
X105601880Y-139223609D01*
X105601880Y-139223609D02*
X105554261Y-139271228D01*
X105554261Y-139271228D02*
X105459023Y-139318847D01*
X105459023Y-139318847D02*
X105363785Y-139318847D01*
X105125689Y-139318847D02*
X104887594Y-138652180D01*
X104649499Y-139318847D02*
X104887594Y-138652180D01*
X104887594Y-138652180D02*
X104982832Y-138414085D01*
X104982832Y-138414085D02*
X105030451Y-138366466D01*
X105030451Y-138366466D02*
X105125689Y-138318847D01*
X182312080Y-129843857D02*
X182359700Y-129891476D01*
X182359700Y-129891476D02*
X182407319Y-130034333D01*
X182407319Y-130034333D02*
X182407319Y-130129571D01*
X182407319Y-130129571D02*
X182359700Y-130272428D01*
X182359700Y-130272428D02*
X182264461Y-130367666D01*
X182264461Y-130367666D02*
X182169223Y-130415285D01*
X182169223Y-130415285D02*
X181978747Y-130462904D01*
X181978747Y-130462904D02*
X181835890Y-130462904D01*
X181835890Y-130462904D02*
X181645414Y-130415285D01*
X181645414Y-130415285D02*
X181550176Y-130367666D01*
X181550176Y-130367666D02*
X181454938Y-130272428D01*
X181454938Y-130272428D02*
X181407319Y-130129571D01*
X181407319Y-130129571D02*
X181407319Y-130034333D01*
X181407319Y-130034333D02*
X181454938Y-129891476D01*
X181454938Y-129891476D02*
X181502557Y-129843857D01*
X182407319Y-128891476D02*
X182407319Y-129462904D01*
X182407319Y-129177190D02*
X181407319Y-129177190D01*
X181407319Y-129177190D02*
X181550176Y-129272428D01*
X181550176Y-129272428D02*
X181645414Y-129367666D01*
X181645414Y-129367666D02*
X181693033Y-129462904D01*
X181502557Y-128510523D02*
X181454938Y-128462904D01*
X181454938Y-128462904D02*
X181407319Y-128367666D01*
X181407319Y-128367666D02*
X181407319Y-128129571D01*
X181407319Y-128129571D02*
X181454938Y-128034333D01*
X181454938Y-128034333D02*
X181502557Y-127986714D01*
X181502557Y-127986714D02*
X181597795Y-127939095D01*
X181597795Y-127939095D02*
X181693033Y-127939095D01*
X181693033Y-127939095D02*
X181835890Y-127986714D01*
X181835890Y-127986714D02*
X182407319Y-128558142D01*
X182407319Y-128558142D02*
X182407319Y-127939095D01*
X174006580Y-100799857D02*
X174054200Y-100847476D01*
X174054200Y-100847476D02*
X174101819Y-100990333D01*
X174101819Y-100990333D02*
X174101819Y-101085571D01*
X174101819Y-101085571D02*
X174054200Y-101228428D01*
X174054200Y-101228428D02*
X173958961Y-101323666D01*
X173958961Y-101323666D02*
X173863723Y-101371285D01*
X173863723Y-101371285D02*
X173673247Y-101418904D01*
X173673247Y-101418904D02*
X173530390Y-101418904D01*
X173530390Y-101418904D02*
X173339914Y-101371285D01*
X173339914Y-101371285D02*
X173244676Y-101323666D01*
X173244676Y-101323666D02*
X173149438Y-101228428D01*
X173149438Y-101228428D02*
X173101819Y-101085571D01*
X173101819Y-101085571D02*
X173101819Y-100990333D01*
X173101819Y-100990333D02*
X173149438Y-100847476D01*
X173149438Y-100847476D02*
X173197057Y-100799857D01*
X174101819Y-99847476D02*
X174101819Y-100418904D01*
X174101819Y-100133190D02*
X173101819Y-100133190D01*
X173101819Y-100133190D02*
X173244676Y-100228428D01*
X173244676Y-100228428D02*
X173339914Y-100323666D01*
X173339914Y-100323666D02*
X173387533Y-100418904D01*
X174101819Y-98895095D02*
X174101819Y-99466523D01*
X174101819Y-99180809D02*
X173101819Y-99180809D01*
X173101819Y-99180809D02*
X173244676Y-99276047D01*
X173244676Y-99276047D02*
X173339914Y-99371285D01*
X173339914Y-99371285D02*
X173387533Y-99466523D01*
X141090309Y-121305628D02*
X141090309Y-121781819D01*
X140756976Y-120781819D02*
X141090309Y-121305628D01*
X141090309Y-121305628D02*
X141423642Y-120781819D01*
X142280785Y-121781819D02*
X141709357Y-121781819D01*
X141995071Y-121781819D02*
X141995071Y-120781819D01*
X141995071Y-120781819D02*
X141899833Y-120924676D01*
X141899833Y-120924676D02*
X141804595Y-121019914D01*
X141804595Y-121019914D02*
X141709357Y-121067533D01*
X138383642Y-93619580D02*
X138336023Y-93667200D01*
X138336023Y-93667200D02*
X138193166Y-93714819D01*
X138193166Y-93714819D02*
X138097928Y-93714819D01*
X138097928Y-93714819D02*
X137955071Y-93667200D01*
X137955071Y-93667200D02*
X137859833Y-93571961D01*
X137859833Y-93571961D02*
X137812214Y-93476723D01*
X137812214Y-93476723D02*
X137764595Y-93286247D01*
X137764595Y-93286247D02*
X137764595Y-93143390D01*
X137764595Y-93143390D02*
X137812214Y-92952914D01*
X137812214Y-92952914D02*
X137859833Y-92857676D01*
X137859833Y-92857676D02*
X137955071Y-92762438D01*
X137955071Y-92762438D02*
X138097928Y-92714819D01*
X138097928Y-92714819D02*
X138193166Y-92714819D01*
X138193166Y-92714819D02*
X138336023Y-92762438D01*
X138336023Y-92762438D02*
X138383642Y-92810057D01*
X138764595Y-92810057D02*
X138812214Y-92762438D01*
X138812214Y-92762438D02*
X138907452Y-92714819D01*
X138907452Y-92714819D02*
X139145547Y-92714819D01*
X139145547Y-92714819D02*
X139240785Y-92762438D01*
X139240785Y-92762438D02*
X139288404Y-92810057D01*
X139288404Y-92810057D02*
X139336023Y-92905295D01*
X139336023Y-92905295D02*
X139336023Y-93000533D01*
X139336023Y-93000533D02*
X139288404Y-93143390D01*
X139288404Y-93143390D02*
X138716976Y-93714819D01*
X138716976Y-93714819D02*
X139336023Y-93714819D01*
X139716976Y-92810057D02*
X139764595Y-92762438D01*
X139764595Y-92762438D02*
X139859833Y-92714819D01*
X139859833Y-92714819D02*
X140097928Y-92714819D01*
X140097928Y-92714819D02*
X140193166Y-92762438D01*
X140193166Y-92762438D02*
X140240785Y-92810057D01*
X140240785Y-92810057D02*
X140288404Y-92905295D01*
X140288404Y-92905295D02*
X140288404Y-93000533D01*
X140288404Y-93000533D02*
X140240785Y-93143390D01*
X140240785Y-93143390D02*
X139669357Y-93714819D01*
X139669357Y-93714819D02*
X140288404Y-93714819D01*
X166931214Y-98667819D02*
X166359786Y-98667819D01*
X166645500Y-98667819D02*
X166645500Y-97667819D01*
X166645500Y-97667819D02*
X166550262Y-97810676D01*
X166550262Y-97810676D02*
X166455024Y-97905914D01*
X166455024Y-97905914D02*
X166359786Y-97953533D01*
D11*
X152575833Y-93587299D02*
X152242500Y-93111108D01*
X152004405Y-93587299D02*
X152004405Y-92587299D01*
X152004405Y-92587299D02*
X152385357Y-92587299D01*
X152385357Y-92587299D02*
X152480595Y-92634918D01*
X152480595Y-92634918D02*
X152528214Y-92682537D01*
X152528214Y-92682537D02*
X152575833Y-92777775D01*
X152575833Y-92777775D02*
X152575833Y-92920632D01*
X152575833Y-92920632D02*
X152528214Y-93015870D01*
X152528214Y-93015870D02*
X152480595Y-93063489D01*
X152480595Y-93063489D02*
X152385357Y-93111108D01*
X152385357Y-93111108D02*
X152004405Y-93111108D01*
X153147262Y-93015870D02*
X153052024Y-92968251D01*
X153052024Y-92968251D02*
X153004405Y-92920632D01*
X153004405Y-92920632D02*
X152956786Y-92825394D01*
X152956786Y-92825394D02*
X152956786Y-92777775D01*
X152956786Y-92777775D02*
X153004405Y-92682537D01*
X153004405Y-92682537D02*
X153052024Y-92634918D01*
X153052024Y-92634918D02*
X153147262Y-92587299D01*
X153147262Y-92587299D02*
X153337738Y-92587299D01*
X153337738Y-92587299D02*
X153432976Y-92634918D01*
X153432976Y-92634918D02*
X153480595Y-92682537D01*
X153480595Y-92682537D02*
X153528214Y-92777775D01*
X153528214Y-92777775D02*
X153528214Y-92825394D01*
X153528214Y-92825394D02*
X153480595Y-92920632D01*
X153480595Y-92920632D02*
X153432976Y-92968251D01*
X153432976Y-92968251D02*
X153337738Y-93015870D01*
X153337738Y-93015870D02*
X153147262Y-93015870D01*
X153147262Y-93015870D02*
X153052024Y-93063489D01*
X153052024Y-93063489D02*
X153004405Y-93111108D01*
X153004405Y-93111108D02*
X152956786Y-93206346D01*
X152956786Y-93206346D02*
X152956786Y-93396822D01*
X152956786Y-93396822D02*
X153004405Y-93492060D01*
X153004405Y-93492060D02*
X153052024Y-93539680D01*
X153052024Y-93539680D02*
X153147262Y-93587299D01*
X153147262Y-93587299D02*
X153337738Y-93587299D01*
X153337738Y-93587299D02*
X153432976Y-93539680D01*
X153432976Y-93539680D02*
X153480595Y-93492060D01*
X153480595Y-93492060D02*
X153528214Y-93396822D01*
X153528214Y-93396822D02*
X153528214Y-93206346D01*
X153528214Y-93206346D02*
X153480595Y-93111108D01*
X153480595Y-93111108D02*
X153432976Y-93063489D01*
X153432976Y-93063489D02*
X153337738Y-93015870D01*
D10*
X143725595Y-102874819D02*
X143725595Y-103684342D01*
X143725595Y-103684342D02*
X143773214Y-103779580D01*
X143773214Y-103779580D02*
X143820833Y-103827200D01*
X143820833Y-103827200D02*
X143916071Y-103874819D01*
X143916071Y-103874819D02*
X144106547Y-103874819D01*
X144106547Y-103874819D02*
X144201785Y-103827200D01*
X144201785Y-103827200D02*
X144249404Y-103779580D01*
X144249404Y-103779580D02*
X144297023Y-103684342D01*
X144297023Y-103684342D02*
X144297023Y-102874819D01*
X144677976Y-102874819D02*
X145344642Y-102874819D01*
X145344642Y-102874819D02*
X144916071Y-103874819D01*
X179245833Y-101715819D02*
X178912500Y-101239628D01*
X178674405Y-101715819D02*
X178674405Y-100715819D01*
X178674405Y-100715819D02*
X179055357Y-100715819D01*
X179055357Y-100715819D02*
X179150595Y-100763438D01*
X179150595Y-100763438D02*
X179198214Y-100811057D01*
X179198214Y-100811057D02*
X179245833Y-100906295D01*
X179245833Y-100906295D02*
X179245833Y-101049152D01*
X179245833Y-101049152D02*
X179198214Y-101144390D01*
X179198214Y-101144390D02*
X179150595Y-101192009D01*
X179150595Y-101192009D02*
X179055357Y-101239628D01*
X179055357Y-101239628D02*
X178674405Y-101239628D01*
X179722024Y-101715819D02*
X179912500Y-101715819D01*
X179912500Y-101715819D02*
X180007738Y-101668200D01*
X180007738Y-101668200D02*
X180055357Y-101620580D01*
X180055357Y-101620580D02*
X180150595Y-101477723D01*
X180150595Y-101477723D02*
X180198214Y-101287247D01*
X180198214Y-101287247D02*
X180198214Y-100906295D01*
X180198214Y-100906295D02*
X180150595Y-100811057D01*
X180150595Y-100811057D02*
X180102976Y-100763438D01*
X180102976Y-100763438D02*
X180007738Y-100715819D01*
X180007738Y-100715819D02*
X179817262Y-100715819D01*
X179817262Y-100715819D02*
X179722024Y-100763438D01*
X179722024Y-100763438D02*
X179674405Y-100811057D01*
X179674405Y-100811057D02*
X179626786Y-100906295D01*
X179626786Y-100906295D02*
X179626786Y-101144390D01*
X179626786Y-101144390D02*
X179674405Y-101239628D01*
X179674405Y-101239628D02*
X179722024Y-101287247D01*
X179722024Y-101287247D02*
X179817262Y-101334866D01*
X179817262Y-101334866D02*
X180007738Y-101334866D01*
X180007738Y-101334866D02*
X180102976Y-101287247D01*
X180102976Y-101287247D02*
X180150595Y-101239628D01*
X180150595Y-101239628D02*
X180198214Y-101144390D01*
X181390319Y-132637857D02*
X180914128Y-132971190D01*
X181390319Y-133209285D02*
X180390319Y-133209285D01*
X180390319Y-133209285D02*
X180390319Y-132828333D01*
X180390319Y-132828333D02*
X180437938Y-132733095D01*
X180437938Y-132733095D02*
X180485557Y-132685476D01*
X180485557Y-132685476D02*
X180580795Y-132637857D01*
X180580795Y-132637857D02*
X180723652Y-132637857D01*
X180723652Y-132637857D02*
X180818890Y-132685476D01*
X180818890Y-132685476D02*
X180866509Y-132733095D01*
X180866509Y-132733095D02*
X180914128Y-132828333D01*
X180914128Y-132828333D02*
X180914128Y-133209285D01*
X180485557Y-132256904D02*
X180437938Y-132209285D01*
X180437938Y-132209285D02*
X180390319Y-132114047D01*
X180390319Y-132114047D02*
X180390319Y-131875952D01*
X180390319Y-131875952D02*
X180437938Y-131780714D01*
X180437938Y-131780714D02*
X180485557Y-131733095D01*
X180485557Y-131733095D02*
X180580795Y-131685476D01*
X180580795Y-131685476D02*
X180676033Y-131685476D01*
X180676033Y-131685476D02*
X180818890Y-131733095D01*
X180818890Y-131733095D02*
X181390319Y-132304523D01*
X181390319Y-132304523D02*
X181390319Y-131685476D01*
X180818890Y-131114047D02*
X180771271Y-131209285D01*
X180771271Y-131209285D02*
X180723652Y-131256904D01*
X180723652Y-131256904D02*
X180628414Y-131304523D01*
X180628414Y-131304523D02*
X180580795Y-131304523D01*
X180580795Y-131304523D02*
X180485557Y-131256904D01*
X180485557Y-131256904D02*
X180437938Y-131209285D01*
X180437938Y-131209285D02*
X180390319Y-131114047D01*
X180390319Y-131114047D02*
X180390319Y-130923571D01*
X180390319Y-130923571D02*
X180437938Y-130828333D01*
X180437938Y-130828333D02*
X180485557Y-130780714D01*
X180485557Y-130780714D02*
X180580795Y-130733095D01*
X180580795Y-130733095D02*
X180628414Y-130733095D01*
X180628414Y-130733095D02*
X180723652Y-130780714D01*
X180723652Y-130780714D02*
X180771271Y-130828333D01*
X180771271Y-130828333D02*
X180818890Y-130923571D01*
X180818890Y-130923571D02*
X180818890Y-131114047D01*
X180818890Y-131114047D02*
X180866509Y-131209285D01*
X180866509Y-131209285D02*
X180914128Y-131256904D01*
X180914128Y-131256904D02*
X181009366Y-131304523D01*
X181009366Y-131304523D02*
X181199842Y-131304523D01*
X181199842Y-131304523D02*
X181295080Y-131256904D01*
X181295080Y-131256904D02*
X181342700Y-131209285D01*
X181342700Y-131209285D02*
X181390319Y-131114047D01*
X181390319Y-131114047D02*
X181390319Y-130923571D01*
X181390319Y-130923571D02*
X181342700Y-130828333D01*
X181342700Y-130828333D02*
X181295080Y-130780714D01*
X181295080Y-130780714D02*
X181199842Y-130733095D01*
X181199842Y-130733095D02*
X181009366Y-130733095D01*
X181009366Y-130733095D02*
X180914128Y-130780714D01*
X180914128Y-130780714D02*
X180866509Y-130828333D01*
X180866509Y-130828333D02*
X180818890Y-130923571D01*
X179245833Y-117495580D02*
X179198214Y-117543200D01*
X179198214Y-117543200D02*
X179055357Y-117590819D01*
X179055357Y-117590819D02*
X178960119Y-117590819D01*
X178960119Y-117590819D02*
X178817262Y-117543200D01*
X178817262Y-117543200D02*
X178722024Y-117447961D01*
X178722024Y-117447961D02*
X178674405Y-117352723D01*
X178674405Y-117352723D02*
X178626786Y-117162247D01*
X178626786Y-117162247D02*
X178626786Y-117019390D01*
X178626786Y-117019390D02*
X178674405Y-116828914D01*
X178674405Y-116828914D02*
X178722024Y-116733676D01*
X178722024Y-116733676D02*
X178817262Y-116638438D01*
X178817262Y-116638438D02*
X178960119Y-116590819D01*
X178960119Y-116590819D02*
X179055357Y-116590819D01*
X179055357Y-116590819D02*
X179198214Y-116638438D01*
X179198214Y-116638438D02*
X179245833Y-116686057D01*
X179626786Y-116686057D02*
X179674405Y-116638438D01*
X179674405Y-116638438D02*
X179769643Y-116590819D01*
X179769643Y-116590819D02*
X180007738Y-116590819D01*
X180007738Y-116590819D02*
X180102976Y-116638438D01*
X180102976Y-116638438D02*
X180150595Y-116686057D01*
X180150595Y-116686057D02*
X180198214Y-116781295D01*
X180198214Y-116781295D02*
X180198214Y-116876533D01*
X180198214Y-116876533D02*
X180150595Y-117019390D01*
X180150595Y-117019390D02*
X179579167Y-117590819D01*
X179579167Y-117590819D02*
X180198214Y-117590819D01*
X133139628Y-110986819D02*
X132806295Y-110510628D01*
X132568200Y-110986819D02*
X132568200Y-109986819D01*
X132568200Y-109986819D02*
X132949152Y-109986819D01*
X132949152Y-109986819D02*
X133044390Y-110034438D01*
X133044390Y-110034438D02*
X133092009Y-110082057D01*
X133092009Y-110082057D02*
X133139628Y-110177295D01*
X133139628Y-110177295D02*
X133139628Y-110320152D01*
X133139628Y-110320152D02*
X133092009Y-110415390D01*
X133092009Y-110415390D02*
X133044390Y-110463009D01*
X133044390Y-110463009D02*
X132949152Y-110510628D01*
X132949152Y-110510628D02*
X132568200Y-110510628D01*
X133520581Y-110082057D02*
X133568200Y-110034438D01*
X133568200Y-110034438D02*
X133663438Y-109986819D01*
X133663438Y-109986819D02*
X133901533Y-109986819D01*
X133901533Y-109986819D02*
X133996771Y-110034438D01*
X133996771Y-110034438D02*
X134044390Y-110082057D01*
X134044390Y-110082057D02*
X134092009Y-110177295D01*
X134092009Y-110177295D02*
X134092009Y-110272533D01*
X134092009Y-110272533D02*
X134044390Y-110415390D01*
X134044390Y-110415390D02*
X133472962Y-110986819D01*
X133472962Y-110986819D02*
X134092009Y-110986819D01*
X134949152Y-110320152D02*
X134949152Y-110986819D01*
X134711057Y-109939200D02*
X134472962Y-110653485D01*
X134472962Y-110653485D02*
X135092009Y-110653485D01*
X174192319Y-98189094D02*
X173192319Y-98189094D01*
X173192319Y-98189094D02*
X173192319Y-97950999D01*
X173192319Y-97950999D02*
X173239938Y-97808142D01*
X173239938Y-97808142D02*
X173335176Y-97712904D01*
X173335176Y-97712904D02*
X173430414Y-97665285D01*
X173430414Y-97665285D02*
X173620890Y-97617666D01*
X173620890Y-97617666D02*
X173763747Y-97617666D01*
X173763747Y-97617666D02*
X173954223Y-97665285D01*
X173954223Y-97665285D02*
X174049461Y-97712904D01*
X174049461Y-97712904D02*
X174144700Y-97808142D01*
X174144700Y-97808142D02*
X174192319Y-97950999D01*
X174192319Y-97950999D02*
X174192319Y-98189094D01*
X174192319Y-96665285D02*
X174192319Y-97236713D01*
X174192319Y-96950999D02*
X173192319Y-96950999D01*
X173192319Y-96950999D02*
X173335176Y-97046237D01*
X173335176Y-97046237D02*
X173430414Y-97141475D01*
X173430414Y-97141475D02*
X173478033Y-97236713D01*
X142703167Y-94384295D02*
X142436500Y-94003342D01*
X142246024Y-94384295D02*
X142246024Y-93584295D01*
X142246024Y-93584295D02*
X142550786Y-93584295D01*
X142550786Y-93584295D02*
X142626976Y-93622390D01*
X142626976Y-93622390D02*
X142665071Y-93660485D01*
X142665071Y-93660485D02*
X142703167Y-93736676D01*
X142703167Y-93736676D02*
X142703167Y-93850961D01*
X142703167Y-93850961D02*
X142665071Y-93927152D01*
X142665071Y-93927152D02*
X142626976Y-93965247D01*
X142626976Y-93965247D02*
X142550786Y-94003342D01*
X142550786Y-94003342D02*
X142246024Y-94003342D01*
X142969833Y-93584295D02*
X143503167Y-93584295D01*
X143503167Y-93584295D02*
X143160309Y-94384295D01*
X175549319Y-101300666D02*
X175073128Y-101633999D01*
X175549319Y-101872094D02*
X174549319Y-101872094D01*
X174549319Y-101872094D02*
X174549319Y-101491142D01*
X174549319Y-101491142D02*
X174596938Y-101395904D01*
X174596938Y-101395904D02*
X174644557Y-101348285D01*
X174644557Y-101348285D02*
X174739795Y-101300666D01*
X174739795Y-101300666D02*
X174882652Y-101300666D01*
X174882652Y-101300666D02*
X174977890Y-101348285D01*
X174977890Y-101348285D02*
X175025509Y-101395904D01*
X175025509Y-101395904D02*
X175073128Y-101491142D01*
X175073128Y-101491142D02*
X175073128Y-101872094D01*
X174549319Y-100443523D02*
X174549319Y-100633999D01*
X174549319Y-100633999D02*
X174596938Y-100729237D01*
X174596938Y-100729237D02*
X174644557Y-100776856D01*
X174644557Y-100776856D02*
X174787414Y-100872094D01*
X174787414Y-100872094D02*
X174977890Y-100919713D01*
X174977890Y-100919713D02*
X175358842Y-100919713D01*
X175358842Y-100919713D02*
X175454080Y-100872094D01*
X175454080Y-100872094D02*
X175501700Y-100824475D01*
X175501700Y-100824475D02*
X175549319Y-100729237D01*
X175549319Y-100729237D02*
X175549319Y-100538761D01*
X175549319Y-100538761D02*
X175501700Y-100443523D01*
X175501700Y-100443523D02*
X175454080Y-100395904D01*
X175454080Y-100395904D02*
X175358842Y-100348285D01*
X175358842Y-100348285D02*
X175120747Y-100348285D01*
X175120747Y-100348285D02*
X175025509Y-100395904D01*
X175025509Y-100395904D02*
X174977890Y-100443523D01*
X174977890Y-100443523D02*
X174930271Y-100538761D01*
X174930271Y-100538761D02*
X174930271Y-100729237D01*
X174930271Y-100729237D02*
X174977890Y-100824475D01*
X174977890Y-100824475D02*
X175025509Y-100872094D01*
X175025509Y-100872094D02*
X175120747Y-100919713D01*
X149809580Y-101226857D02*
X149857200Y-101274476D01*
X149857200Y-101274476D02*
X149904819Y-101417333D01*
X149904819Y-101417333D02*
X149904819Y-101512571D01*
X149904819Y-101512571D02*
X149857200Y-101655428D01*
X149857200Y-101655428D02*
X149761961Y-101750666D01*
X149761961Y-101750666D02*
X149666723Y-101798285D01*
X149666723Y-101798285D02*
X149476247Y-101845904D01*
X149476247Y-101845904D02*
X149333390Y-101845904D01*
X149333390Y-101845904D02*
X149142914Y-101798285D01*
X149142914Y-101798285D02*
X149047676Y-101750666D01*
X149047676Y-101750666D02*
X148952438Y-101655428D01*
X148952438Y-101655428D02*
X148904819Y-101512571D01*
X148904819Y-101512571D02*
X148904819Y-101417333D01*
X148904819Y-101417333D02*
X148952438Y-101274476D01*
X148952438Y-101274476D02*
X149000057Y-101226857D01*
X149000057Y-100845904D02*
X148952438Y-100798285D01*
X148952438Y-100798285D02*
X148904819Y-100703047D01*
X148904819Y-100703047D02*
X148904819Y-100464952D01*
X148904819Y-100464952D02*
X148952438Y-100369714D01*
X148952438Y-100369714D02*
X149000057Y-100322095D01*
X149000057Y-100322095D02*
X149095295Y-100274476D01*
X149095295Y-100274476D02*
X149190533Y-100274476D01*
X149190533Y-100274476D02*
X149333390Y-100322095D01*
X149333390Y-100322095D02*
X149904819Y-100893523D01*
X149904819Y-100893523D02*
X149904819Y-100274476D01*
X149904819Y-99322095D02*
X149904819Y-99893523D01*
X149904819Y-99607809D02*
X148904819Y-99607809D01*
X148904819Y-99607809D02*
X149047676Y-99703047D01*
X149047676Y-99703047D02*
X149142914Y-99798285D01*
X149142914Y-99798285D02*
X149190533Y-99893523D01*
X162640642Y-107335580D02*
X162593023Y-107383200D01*
X162593023Y-107383200D02*
X162450166Y-107430819D01*
X162450166Y-107430819D02*
X162354928Y-107430819D01*
X162354928Y-107430819D02*
X162212071Y-107383200D01*
X162212071Y-107383200D02*
X162116833Y-107287961D01*
X162116833Y-107287961D02*
X162069214Y-107192723D01*
X162069214Y-107192723D02*
X162021595Y-107002247D01*
X162021595Y-107002247D02*
X162021595Y-106859390D01*
X162021595Y-106859390D02*
X162069214Y-106668914D01*
X162069214Y-106668914D02*
X162116833Y-106573676D01*
X162116833Y-106573676D02*
X162212071Y-106478438D01*
X162212071Y-106478438D02*
X162354928Y-106430819D01*
X162354928Y-106430819D02*
X162450166Y-106430819D01*
X162450166Y-106430819D02*
X162593023Y-106478438D01*
X162593023Y-106478438D02*
X162640642Y-106526057D01*
X163593023Y-107430819D02*
X163021595Y-107430819D01*
X163307309Y-107430819D02*
X163307309Y-106430819D01*
X163307309Y-106430819D02*
X163212071Y-106573676D01*
X163212071Y-106573676D02*
X163116833Y-106668914D01*
X163116833Y-106668914D02*
X163021595Y-106716533D01*
X164212071Y-106430819D02*
X164307309Y-106430819D01*
X164307309Y-106430819D02*
X164402547Y-106478438D01*
X164402547Y-106478438D02*
X164450166Y-106526057D01*
X164450166Y-106526057D02*
X164497785Y-106621295D01*
X164497785Y-106621295D02*
X164545404Y-106811771D01*
X164545404Y-106811771D02*
X164545404Y-107049866D01*
X164545404Y-107049866D02*
X164497785Y-107240342D01*
X164497785Y-107240342D02*
X164450166Y-107335580D01*
X164450166Y-107335580D02*
X164402547Y-107383200D01*
X164402547Y-107383200D02*
X164307309Y-107430819D01*
X164307309Y-107430819D02*
X164212071Y-107430819D01*
X164212071Y-107430819D02*
X164116833Y-107383200D01*
X164116833Y-107383200D02*
X164069214Y-107335580D01*
X164069214Y-107335580D02*
X164021595Y-107240342D01*
X164021595Y-107240342D02*
X163973976Y-107049866D01*
X163973976Y-107049866D02*
X163973976Y-106811771D01*
X163973976Y-106811771D02*
X164021595Y-106621295D01*
X164021595Y-106621295D02*
X164069214Y-106526057D01*
X164069214Y-106526057D02*
X164116833Y-106478438D01*
X164116833Y-106478438D02*
X164212071Y-106430819D01*
X137367642Y-107970580D02*
X137320023Y-108018200D01*
X137320023Y-108018200D02*
X137177166Y-108065819D01*
X137177166Y-108065819D02*
X137081928Y-108065819D01*
X137081928Y-108065819D02*
X136939071Y-108018200D01*
X136939071Y-108018200D02*
X136843833Y-107922961D01*
X136843833Y-107922961D02*
X136796214Y-107827723D01*
X136796214Y-107827723D02*
X136748595Y-107637247D01*
X136748595Y-107637247D02*
X136748595Y-107494390D01*
X136748595Y-107494390D02*
X136796214Y-107303914D01*
X136796214Y-107303914D02*
X136843833Y-107208676D01*
X136843833Y-107208676D02*
X136939071Y-107113438D01*
X136939071Y-107113438D02*
X137081928Y-107065819D01*
X137081928Y-107065819D02*
X137177166Y-107065819D01*
X137177166Y-107065819D02*
X137320023Y-107113438D01*
X137320023Y-107113438D02*
X137367642Y-107161057D01*
X137748595Y-107161057D02*
X137796214Y-107113438D01*
X137796214Y-107113438D02*
X137891452Y-107065819D01*
X137891452Y-107065819D02*
X138129547Y-107065819D01*
X138129547Y-107065819D02*
X138224785Y-107113438D01*
X138224785Y-107113438D02*
X138272404Y-107161057D01*
X138272404Y-107161057D02*
X138320023Y-107256295D01*
X138320023Y-107256295D02*
X138320023Y-107351533D01*
X138320023Y-107351533D02*
X138272404Y-107494390D01*
X138272404Y-107494390D02*
X137700976Y-108065819D01*
X137700976Y-108065819D02*
X138320023Y-108065819D01*
X138653357Y-107065819D02*
X139320023Y-107065819D01*
X139320023Y-107065819D02*
X138891452Y-108065819D01*
X139877385Y-102509580D02*
X139829766Y-102557200D01*
X139829766Y-102557200D02*
X139686909Y-102604819D01*
X139686909Y-102604819D02*
X139591671Y-102604819D01*
X139591671Y-102604819D02*
X139448814Y-102557200D01*
X139448814Y-102557200D02*
X139353576Y-102461961D01*
X139353576Y-102461961D02*
X139305957Y-102366723D01*
X139305957Y-102366723D02*
X139258338Y-102176247D01*
X139258338Y-102176247D02*
X139258338Y-102033390D01*
X139258338Y-102033390D02*
X139305957Y-101842914D01*
X139305957Y-101842914D02*
X139353576Y-101747676D01*
X139353576Y-101747676D02*
X139448814Y-101652438D01*
X139448814Y-101652438D02*
X139591671Y-101604819D01*
X139591671Y-101604819D02*
X139686909Y-101604819D01*
X139686909Y-101604819D02*
X139829766Y-101652438D01*
X139829766Y-101652438D02*
X139877385Y-101700057D01*
X140258338Y-101700057D02*
X140305957Y-101652438D01*
X140305957Y-101652438D02*
X140401195Y-101604819D01*
X140401195Y-101604819D02*
X140639290Y-101604819D01*
X140639290Y-101604819D02*
X140734528Y-101652438D01*
X140734528Y-101652438D02*
X140782147Y-101700057D01*
X140782147Y-101700057D02*
X140829766Y-101795295D01*
X140829766Y-101795295D02*
X140829766Y-101890533D01*
X140829766Y-101890533D02*
X140782147Y-102033390D01*
X140782147Y-102033390D02*
X140210719Y-102604819D01*
X140210719Y-102604819D02*
X140829766Y-102604819D01*
X141686909Y-101604819D02*
X141496433Y-101604819D01*
X141496433Y-101604819D02*
X141401195Y-101652438D01*
X141401195Y-101652438D02*
X141353576Y-101700057D01*
X141353576Y-101700057D02*
X141258338Y-101842914D01*
X141258338Y-101842914D02*
X141210719Y-102033390D01*
X141210719Y-102033390D02*
X141210719Y-102414342D01*
X141210719Y-102414342D02*
X141258338Y-102509580D01*
X141258338Y-102509580D02*
X141305957Y-102557200D01*
X141305957Y-102557200D02*
X141401195Y-102604819D01*
X141401195Y-102604819D02*
X141591671Y-102604819D01*
X141591671Y-102604819D02*
X141686909Y-102557200D01*
X141686909Y-102557200D02*
X141734528Y-102509580D01*
X141734528Y-102509580D02*
X141782147Y-102414342D01*
X141782147Y-102414342D02*
X141782147Y-102176247D01*
X141782147Y-102176247D02*
X141734528Y-102081009D01*
X141734528Y-102081009D02*
X141686909Y-102033390D01*
X141686909Y-102033390D02*
X141591671Y-101985771D01*
X141591671Y-101985771D02*
X141401195Y-101985771D01*
X141401195Y-101985771D02*
X141305957Y-102033390D01*
X141305957Y-102033390D02*
X141258338Y-102081009D01*
X141258338Y-102081009D02*
X141210719Y-102176247D01*
X151928823Y-112952857D02*
X151976443Y-113000476D01*
X151976443Y-113000476D02*
X152024062Y-113143333D01*
X152024062Y-113143333D02*
X152024062Y-113238571D01*
X152024062Y-113238571D02*
X151976443Y-113381428D01*
X151976443Y-113381428D02*
X151881204Y-113476666D01*
X151881204Y-113476666D02*
X151785966Y-113524285D01*
X151785966Y-113524285D02*
X151595490Y-113571904D01*
X151595490Y-113571904D02*
X151452633Y-113571904D01*
X151452633Y-113571904D02*
X151262157Y-113524285D01*
X151262157Y-113524285D02*
X151166919Y-113476666D01*
X151166919Y-113476666D02*
X151071681Y-113381428D01*
X151071681Y-113381428D02*
X151024062Y-113238571D01*
X151024062Y-113238571D02*
X151024062Y-113143333D01*
X151024062Y-113143333D02*
X151071681Y-113000476D01*
X151071681Y-113000476D02*
X151119300Y-112952857D01*
X151119300Y-112571904D02*
X151071681Y-112524285D01*
X151071681Y-112524285D02*
X151024062Y-112429047D01*
X151024062Y-112429047D02*
X151024062Y-112190952D01*
X151024062Y-112190952D02*
X151071681Y-112095714D01*
X151071681Y-112095714D02*
X151119300Y-112048095D01*
X151119300Y-112048095D02*
X151214538Y-112000476D01*
X151214538Y-112000476D02*
X151309776Y-112000476D01*
X151309776Y-112000476D02*
X151452633Y-112048095D01*
X151452633Y-112048095D02*
X152024062Y-112619523D01*
X152024062Y-112619523D02*
X152024062Y-112000476D01*
X151024062Y-111667142D02*
X151024062Y-111048095D01*
X151024062Y-111048095D02*
X151405014Y-111381428D01*
X151405014Y-111381428D02*
X151405014Y-111238571D01*
X151405014Y-111238571D02*
X151452633Y-111143333D01*
X151452633Y-111143333D02*
X151500252Y-111095714D01*
X151500252Y-111095714D02*
X151595490Y-111048095D01*
X151595490Y-111048095D02*
X151833585Y-111048095D01*
X151833585Y-111048095D02*
X151928823Y-111095714D01*
X151928823Y-111095714D02*
X151976443Y-111143333D01*
X151976443Y-111143333D02*
X152024062Y-111238571D01*
X152024062Y-111238571D02*
X152024062Y-111524285D01*
X152024062Y-111524285D02*
X151976443Y-111619523D01*
X151976443Y-111619523D02*
X151928823Y-111667142D01*
X164770319Y-109769904D02*
X165579842Y-109769904D01*
X165579842Y-109769904D02*
X165675080Y-109722285D01*
X165675080Y-109722285D02*
X165722700Y-109674666D01*
X165722700Y-109674666D02*
X165770319Y-109579428D01*
X165770319Y-109579428D02*
X165770319Y-109388952D01*
X165770319Y-109388952D02*
X165722700Y-109293714D01*
X165722700Y-109293714D02*
X165675080Y-109246095D01*
X165675080Y-109246095D02*
X165579842Y-109198476D01*
X165579842Y-109198476D02*
X164770319Y-109198476D01*
X164865557Y-108769904D02*
X164817938Y-108722285D01*
X164817938Y-108722285D02*
X164770319Y-108627047D01*
X164770319Y-108627047D02*
X164770319Y-108388952D01*
X164770319Y-108388952D02*
X164817938Y-108293714D01*
X164817938Y-108293714D02*
X164865557Y-108246095D01*
X164865557Y-108246095D02*
X164960795Y-108198476D01*
X164960795Y-108198476D02*
X165056033Y-108198476D01*
X165056033Y-108198476D02*
X165198890Y-108246095D01*
X165198890Y-108246095D02*
X165770319Y-108817523D01*
X165770319Y-108817523D02*
X165770319Y-108198476D01*
X162434261Y-96127819D02*
X162100928Y-95651628D01*
X161862833Y-96127819D02*
X161862833Y-95127819D01*
X161862833Y-95127819D02*
X162243785Y-95127819D01*
X162243785Y-95127819D02*
X162339023Y-95175438D01*
X162339023Y-95175438D02*
X162386642Y-95223057D01*
X162386642Y-95223057D02*
X162434261Y-95318295D01*
X162434261Y-95318295D02*
X162434261Y-95461152D01*
X162434261Y-95461152D02*
X162386642Y-95556390D01*
X162386642Y-95556390D02*
X162339023Y-95604009D01*
X162339023Y-95604009D02*
X162243785Y-95651628D01*
X162243785Y-95651628D02*
X161862833Y-95651628D01*
X162719976Y-95127819D02*
X163053309Y-96127819D01*
X163053309Y-96127819D02*
X163386642Y-95127819D01*
X164243785Y-96127819D02*
X163672357Y-96127819D01*
X163958071Y-96127819D02*
X163958071Y-95127819D01*
X163958071Y-95127819D02*
X163862833Y-95270676D01*
X163862833Y-95270676D02*
X163767595Y-95365914D01*
X163767595Y-95365914D02*
X163672357Y-95413533D01*
X153877642Y-124447819D02*
X153544309Y-123971628D01*
X153306214Y-124447819D02*
X153306214Y-123447819D01*
X153306214Y-123447819D02*
X153687166Y-123447819D01*
X153687166Y-123447819D02*
X153782404Y-123495438D01*
X153782404Y-123495438D02*
X153830023Y-123543057D01*
X153830023Y-123543057D02*
X153877642Y-123638295D01*
X153877642Y-123638295D02*
X153877642Y-123781152D01*
X153877642Y-123781152D02*
X153830023Y-123876390D01*
X153830023Y-123876390D02*
X153782404Y-123924009D01*
X153782404Y-123924009D02*
X153687166Y-123971628D01*
X153687166Y-123971628D02*
X153306214Y-123971628D01*
X154830023Y-124447819D02*
X154258595Y-124447819D01*
X154544309Y-124447819D02*
X154544309Y-123447819D01*
X154544309Y-123447819D02*
X154449071Y-123590676D01*
X154449071Y-123590676D02*
X154353833Y-123685914D01*
X154353833Y-123685914D02*
X154258595Y-123733533D01*
X155687166Y-123447819D02*
X155496690Y-123447819D01*
X155496690Y-123447819D02*
X155401452Y-123495438D01*
X155401452Y-123495438D02*
X155353833Y-123543057D01*
X155353833Y-123543057D02*
X155258595Y-123685914D01*
X155258595Y-123685914D02*
X155210976Y-123876390D01*
X155210976Y-123876390D02*
X155210976Y-124257342D01*
X155210976Y-124257342D02*
X155258595Y-124352580D01*
X155258595Y-124352580D02*
X155306214Y-124400200D01*
X155306214Y-124400200D02*
X155401452Y-124447819D01*
X155401452Y-124447819D02*
X155591928Y-124447819D01*
X155591928Y-124447819D02*
X155687166Y-124400200D01*
X155687166Y-124400200D02*
X155734785Y-124352580D01*
X155734785Y-124352580D02*
X155782404Y-124257342D01*
X155782404Y-124257342D02*
X155782404Y-124019247D01*
X155782404Y-124019247D02*
X155734785Y-123924009D01*
X155734785Y-123924009D02*
X155687166Y-123876390D01*
X155687166Y-123876390D02*
X155591928Y-123828771D01*
X155591928Y-123828771D02*
X155401452Y-123828771D01*
X155401452Y-123828771D02*
X155306214Y-123876390D01*
X155306214Y-123876390D02*
X155258595Y-123924009D01*
X155258595Y-123924009D02*
X155210976Y-124019247D01*
X166938214Y-98667819D02*
X166366786Y-98667819D01*
X166652500Y-98667819D02*
X166652500Y-97667819D01*
X166652500Y-97667819D02*
X166557262Y-97810676D01*
X166557262Y-97810676D02*
X166462024Y-97905914D01*
X166462024Y-97905914D02*
X166366786Y-97953533D01*
X148035642Y-103652580D02*
X147988023Y-103700200D01*
X147988023Y-103700200D02*
X147845166Y-103747819D01*
X147845166Y-103747819D02*
X147749928Y-103747819D01*
X147749928Y-103747819D02*
X147607071Y-103700200D01*
X147607071Y-103700200D02*
X147511833Y-103604961D01*
X147511833Y-103604961D02*
X147464214Y-103509723D01*
X147464214Y-103509723D02*
X147416595Y-103319247D01*
X147416595Y-103319247D02*
X147416595Y-103176390D01*
X147416595Y-103176390D02*
X147464214Y-102985914D01*
X147464214Y-102985914D02*
X147511833Y-102890676D01*
X147511833Y-102890676D02*
X147607071Y-102795438D01*
X147607071Y-102795438D02*
X147749928Y-102747819D01*
X147749928Y-102747819D02*
X147845166Y-102747819D01*
X147845166Y-102747819D02*
X147988023Y-102795438D01*
X147988023Y-102795438D02*
X148035642Y-102843057D01*
X148988023Y-103747819D02*
X148416595Y-103747819D01*
X148702309Y-103747819D02*
X148702309Y-102747819D01*
X148702309Y-102747819D02*
X148607071Y-102890676D01*
X148607071Y-102890676D02*
X148511833Y-102985914D01*
X148511833Y-102985914D02*
X148416595Y-103033533D01*
X149559452Y-103176390D02*
X149464214Y-103128771D01*
X149464214Y-103128771D02*
X149416595Y-103081152D01*
X149416595Y-103081152D02*
X149368976Y-102985914D01*
X149368976Y-102985914D02*
X149368976Y-102938295D01*
X149368976Y-102938295D02*
X149416595Y-102843057D01*
X149416595Y-102843057D02*
X149464214Y-102795438D01*
X149464214Y-102795438D02*
X149559452Y-102747819D01*
X149559452Y-102747819D02*
X149749928Y-102747819D01*
X149749928Y-102747819D02*
X149845166Y-102795438D01*
X149845166Y-102795438D02*
X149892785Y-102843057D01*
X149892785Y-102843057D02*
X149940404Y-102938295D01*
X149940404Y-102938295D02*
X149940404Y-102985914D01*
X149940404Y-102985914D02*
X149892785Y-103081152D01*
X149892785Y-103081152D02*
X149845166Y-103128771D01*
X149845166Y-103128771D02*
X149749928Y-103176390D01*
X149749928Y-103176390D02*
X149559452Y-103176390D01*
X149559452Y-103176390D02*
X149464214Y-103224009D01*
X149464214Y-103224009D02*
X149416595Y-103271628D01*
X149416595Y-103271628D02*
X149368976Y-103366866D01*
X149368976Y-103366866D02*
X149368976Y-103557342D01*
X149368976Y-103557342D02*
X149416595Y-103652580D01*
X149416595Y-103652580D02*
X149464214Y-103700200D01*
X149464214Y-103700200D02*
X149559452Y-103747819D01*
X149559452Y-103747819D02*
X149749928Y-103747819D01*
X149749928Y-103747819D02*
X149845166Y-103700200D01*
X149845166Y-103700200D02*
X149892785Y-103652580D01*
X149892785Y-103652580D02*
X149940404Y-103557342D01*
X149940404Y-103557342D02*
X149940404Y-103366866D01*
X149940404Y-103366866D02*
X149892785Y-103271628D01*
X149892785Y-103271628D02*
X149845166Y-103224009D01*
X149845166Y-103224009D02*
X149749928Y-103176390D01*
X133139628Y-109716819D02*
X132806295Y-109240628D01*
X132568200Y-109716819D02*
X132568200Y-108716819D01*
X132568200Y-108716819D02*
X132949152Y-108716819D01*
X132949152Y-108716819D02*
X133044390Y-108764438D01*
X133044390Y-108764438D02*
X133092009Y-108812057D01*
X133092009Y-108812057D02*
X133139628Y-108907295D01*
X133139628Y-108907295D02*
X133139628Y-109050152D01*
X133139628Y-109050152D02*
X133092009Y-109145390D01*
X133092009Y-109145390D02*
X133044390Y-109193009D01*
X133044390Y-109193009D02*
X132949152Y-109240628D01*
X132949152Y-109240628D02*
X132568200Y-109240628D01*
X133520581Y-108812057D02*
X133568200Y-108764438D01*
X133568200Y-108764438D02*
X133663438Y-108716819D01*
X133663438Y-108716819D02*
X133901533Y-108716819D01*
X133901533Y-108716819D02*
X133996771Y-108764438D01*
X133996771Y-108764438D02*
X134044390Y-108812057D01*
X134044390Y-108812057D02*
X134092009Y-108907295D01*
X134092009Y-108907295D02*
X134092009Y-109002533D01*
X134092009Y-109002533D02*
X134044390Y-109145390D01*
X134044390Y-109145390D02*
X133472962Y-109716819D01*
X133472962Y-109716819D02*
X134092009Y-109716819D01*
X134996771Y-108716819D02*
X134520581Y-108716819D01*
X134520581Y-108716819D02*
X134472962Y-109193009D01*
X134472962Y-109193009D02*
X134520581Y-109145390D01*
X134520581Y-109145390D02*
X134615819Y-109097771D01*
X134615819Y-109097771D02*
X134853914Y-109097771D01*
X134853914Y-109097771D02*
X134949152Y-109145390D01*
X134949152Y-109145390D02*
X134996771Y-109193009D01*
X134996771Y-109193009D02*
X135044390Y-109288247D01*
X135044390Y-109288247D02*
X135044390Y-109526342D01*
X135044390Y-109526342D02*
X134996771Y-109621580D01*
X134996771Y-109621580D02*
X134949152Y-109669200D01*
X134949152Y-109669200D02*
X134853914Y-109716819D01*
X134853914Y-109716819D02*
X134615819Y-109716819D01*
X134615819Y-109716819D02*
X134520581Y-109669200D01*
X134520581Y-109669200D02*
X134472962Y-109621580D01*
D11*
X151007542Y-96569857D02*
X150531351Y-96903190D01*
X151007542Y-97141285D02*
X150007542Y-97141285D01*
X150007542Y-97141285D02*
X150007542Y-96760333D01*
X150007542Y-96760333D02*
X150055161Y-96665095D01*
X150055161Y-96665095D02*
X150102780Y-96617476D01*
X150102780Y-96617476D02*
X150198018Y-96569857D01*
X150198018Y-96569857D02*
X150340875Y-96569857D01*
X150340875Y-96569857D02*
X150436113Y-96617476D01*
X150436113Y-96617476D02*
X150483732Y-96665095D01*
X150483732Y-96665095D02*
X150531351Y-96760333D01*
X150531351Y-96760333D02*
X150531351Y-97141285D01*
X150007542Y-96236523D02*
X150007542Y-95617476D01*
X150007542Y-95617476D02*
X150388494Y-95950809D01*
X150388494Y-95950809D02*
X150388494Y-95807952D01*
X150388494Y-95807952D02*
X150436113Y-95712714D01*
X150436113Y-95712714D02*
X150483732Y-95665095D01*
X150483732Y-95665095D02*
X150578970Y-95617476D01*
X150578970Y-95617476D02*
X150817065Y-95617476D01*
X150817065Y-95617476D02*
X150912303Y-95665095D01*
X150912303Y-95665095D02*
X150959923Y-95712714D01*
X150959923Y-95712714D02*
X151007542Y-95807952D01*
X151007542Y-95807952D02*
X151007542Y-96093666D01*
X151007542Y-96093666D02*
X150959923Y-96188904D01*
X150959923Y-96188904D02*
X150912303Y-96236523D01*
X150340875Y-94760333D02*
X151007542Y-94760333D01*
X149959923Y-94998428D02*
X150674208Y-95236523D01*
X150674208Y-95236523D02*
X150674208Y-94617476D01*
X154817542Y-87267094D02*
X153817542Y-87267094D01*
X153817542Y-87267094D02*
X153817542Y-87028999D01*
X153817542Y-87028999D02*
X153865161Y-86886142D01*
X153865161Y-86886142D02*
X153960399Y-86790904D01*
X153960399Y-86790904D02*
X154055637Y-86743285D01*
X154055637Y-86743285D02*
X154246113Y-86695666D01*
X154246113Y-86695666D02*
X154388970Y-86695666D01*
X154388970Y-86695666D02*
X154579446Y-86743285D01*
X154579446Y-86743285D02*
X154674684Y-86790904D01*
X154674684Y-86790904D02*
X154769923Y-86886142D01*
X154769923Y-86886142D02*
X154817542Y-87028999D01*
X154817542Y-87028999D02*
X154817542Y-87267094D01*
X153912780Y-86314713D02*
X153865161Y-86267094D01*
X153865161Y-86267094D02*
X153817542Y-86171856D01*
X153817542Y-86171856D02*
X153817542Y-85933761D01*
X153817542Y-85933761D02*
X153865161Y-85838523D01*
X153865161Y-85838523D02*
X153912780Y-85790904D01*
X153912780Y-85790904D02*
X154008018Y-85743285D01*
X154008018Y-85743285D02*
X154103256Y-85743285D01*
X154103256Y-85743285D02*
X154246113Y-85790904D01*
X154246113Y-85790904D02*
X154817542Y-86362332D01*
X154817542Y-86362332D02*
X154817542Y-85743285D01*
D10*
X144308823Y-100379857D02*
X144356443Y-100427476D01*
X144356443Y-100427476D02*
X144404062Y-100570333D01*
X144404062Y-100570333D02*
X144404062Y-100665571D01*
X144404062Y-100665571D02*
X144356443Y-100808428D01*
X144356443Y-100808428D02*
X144261204Y-100903666D01*
X144261204Y-100903666D02*
X144165966Y-100951285D01*
X144165966Y-100951285D02*
X143975490Y-100998904D01*
X143975490Y-100998904D02*
X143832633Y-100998904D01*
X143832633Y-100998904D02*
X143642157Y-100951285D01*
X143642157Y-100951285D02*
X143546919Y-100903666D01*
X143546919Y-100903666D02*
X143451681Y-100808428D01*
X143451681Y-100808428D02*
X143404062Y-100665571D01*
X143404062Y-100665571D02*
X143404062Y-100570333D01*
X143404062Y-100570333D02*
X143451681Y-100427476D01*
X143451681Y-100427476D02*
X143499300Y-100379857D01*
X143499300Y-99998904D02*
X143451681Y-99951285D01*
X143451681Y-99951285D02*
X143404062Y-99856047D01*
X143404062Y-99856047D02*
X143404062Y-99617952D01*
X143404062Y-99617952D02*
X143451681Y-99522714D01*
X143451681Y-99522714D02*
X143499300Y-99475095D01*
X143499300Y-99475095D02*
X143594538Y-99427476D01*
X143594538Y-99427476D02*
X143689776Y-99427476D01*
X143689776Y-99427476D02*
X143832633Y-99475095D01*
X143832633Y-99475095D02*
X144404062Y-100046523D01*
X144404062Y-100046523D02*
X144404062Y-99427476D01*
X144404062Y-98951285D02*
X144404062Y-98760809D01*
X144404062Y-98760809D02*
X144356443Y-98665571D01*
X144356443Y-98665571D02*
X144308823Y-98617952D01*
X144308823Y-98617952D02*
X144165966Y-98522714D01*
X144165966Y-98522714D02*
X143975490Y-98475095D01*
X143975490Y-98475095D02*
X143594538Y-98475095D01*
X143594538Y-98475095D02*
X143499300Y-98522714D01*
X143499300Y-98522714D02*
X143451681Y-98570333D01*
X143451681Y-98570333D02*
X143404062Y-98665571D01*
X143404062Y-98665571D02*
X143404062Y-98856047D01*
X143404062Y-98856047D02*
X143451681Y-98951285D01*
X143451681Y-98951285D02*
X143499300Y-98998904D01*
X143499300Y-98998904D02*
X143594538Y-99046523D01*
X143594538Y-99046523D02*
X143832633Y-99046523D01*
X143832633Y-99046523D02*
X143927871Y-98998904D01*
X143927871Y-98998904D02*
X143975490Y-98951285D01*
X143975490Y-98951285D02*
X144023109Y-98856047D01*
X144023109Y-98856047D02*
X144023109Y-98665571D01*
X144023109Y-98665571D02*
X143975490Y-98570333D01*
X143975490Y-98570333D02*
X143927871Y-98522714D01*
X143927871Y-98522714D02*
X143832633Y-98475095D01*
X177835319Y-126129094D02*
X176835319Y-126129094D01*
X176835319Y-126129094D02*
X176835319Y-125890999D01*
X176835319Y-125890999D02*
X176882938Y-125748142D01*
X176882938Y-125748142D02*
X176978176Y-125652904D01*
X176978176Y-125652904D02*
X177073414Y-125605285D01*
X177073414Y-125605285D02*
X177263890Y-125557666D01*
X177263890Y-125557666D02*
X177406747Y-125557666D01*
X177406747Y-125557666D02*
X177597223Y-125605285D01*
X177597223Y-125605285D02*
X177692461Y-125652904D01*
X177692461Y-125652904D02*
X177787700Y-125748142D01*
X177787700Y-125748142D02*
X177835319Y-125890999D01*
X177835319Y-125890999D02*
X177835319Y-126129094D01*
X177168652Y-124700523D02*
X177835319Y-124700523D01*
X176787700Y-124938618D02*
X177501985Y-125176713D01*
X177501985Y-125176713D02*
X177501985Y-124557666D01*
X141655624Y-131052819D02*
X141655624Y-130052819D01*
X142227052Y-131052819D02*
X141798481Y-130481390D01*
X142227052Y-130052819D02*
X141655624Y-130624247D01*
X142608005Y-130767104D02*
X143084195Y-130767104D01*
X142512767Y-131052819D02*
X142846100Y-130052819D01*
X142846100Y-130052819D02*
X143179433Y-131052819D01*
X143703243Y-130576628D02*
X143703243Y-131052819D01*
X143369910Y-130052819D02*
X143703243Y-130576628D01*
X143703243Y-130576628D02*
X144036576Y-130052819D01*
X144369910Y-131052819D02*
X144369910Y-130052819D01*
X144369910Y-130052819D02*
X144750862Y-130052819D01*
X144750862Y-130052819D02*
X144846100Y-130100438D01*
X144846100Y-130100438D02*
X144893719Y-130148057D01*
X144893719Y-130148057D02*
X144941338Y-130243295D01*
X144941338Y-130243295D02*
X144941338Y-130386152D01*
X144941338Y-130386152D02*
X144893719Y-130481390D01*
X144893719Y-130481390D02*
X144846100Y-130529009D01*
X144846100Y-130529009D02*
X144750862Y-130576628D01*
X144750862Y-130576628D02*
X144369910Y-130576628D01*
X145322291Y-130767104D02*
X145798481Y-130767104D01*
X145227053Y-131052819D02*
X145560386Y-130052819D01*
X145560386Y-130052819D02*
X145893719Y-131052819D01*
X146227053Y-131052819D02*
X146227053Y-130052819D01*
X146227053Y-130052819D02*
X146465148Y-130052819D01*
X146465148Y-130052819D02*
X146608005Y-130100438D01*
X146608005Y-130100438D02*
X146703243Y-130195676D01*
X146703243Y-130195676D02*
X146750862Y-130290914D01*
X146750862Y-130290914D02*
X146798481Y-130481390D01*
X146798481Y-130481390D02*
X146798481Y-130624247D01*
X146798481Y-130624247D02*
X146750862Y-130814723D01*
X146750862Y-130814723D02*
X146703243Y-130909961D01*
X146703243Y-130909961D02*
X146608005Y-131005200D01*
X146608005Y-131005200D02*
X146465148Y-131052819D01*
X146465148Y-131052819D02*
X146227053Y-131052819D01*
X179359319Y-110666857D02*
X178883128Y-111000190D01*
X179359319Y-111238285D02*
X178359319Y-111238285D01*
X178359319Y-111238285D02*
X178359319Y-110857333D01*
X178359319Y-110857333D02*
X178406938Y-110762095D01*
X178406938Y-110762095D02*
X178454557Y-110714476D01*
X178454557Y-110714476D02*
X178549795Y-110666857D01*
X178549795Y-110666857D02*
X178692652Y-110666857D01*
X178692652Y-110666857D02*
X178787890Y-110714476D01*
X178787890Y-110714476D02*
X178835509Y-110762095D01*
X178835509Y-110762095D02*
X178883128Y-110857333D01*
X178883128Y-110857333D02*
X178883128Y-111238285D01*
X179359319Y-109714476D02*
X179359319Y-110285904D01*
X179359319Y-110000190D02*
X178359319Y-110000190D01*
X178359319Y-110000190D02*
X178502176Y-110095428D01*
X178502176Y-110095428D02*
X178597414Y-110190666D01*
X178597414Y-110190666D02*
X178645033Y-110285904D01*
X178359319Y-109095428D02*
X178359319Y-109000190D01*
X178359319Y-109000190D02*
X178406938Y-108904952D01*
X178406938Y-108904952D02*
X178454557Y-108857333D01*
X178454557Y-108857333D02*
X178549795Y-108809714D01*
X178549795Y-108809714D02*
X178740271Y-108762095D01*
X178740271Y-108762095D02*
X178978366Y-108762095D01*
X178978366Y-108762095D02*
X179168842Y-108809714D01*
X179168842Y-108809714D02*
X179264080Y-108857333D01*
X179264080Y-108857333D02*
X179311700Y-108904952D01*
X179311700Y-108904952D02*
X179359319Y-109000190D01*
X179359319Y-109000190D02*
X179359319Y-109095428D01*
X179359319Y-109095428D02*
X179311700Y-109190666D01*
X179311700Y-109190666D02*
X179264080Y-109238285D01*
X179264080Y-109238285D02*
X179168842Y-109285904D01*
X179168842Y-109285904D02*
X178978366Y-109333523D01*
X178978366Y-109333523D02*
X178740271Y-109333523D01*
X178740271Y-109333523D02*
X178549795Y-109285904D01*
X178549795Y-109285904D02*
X178454557Y-109238285D01*
X178454557Y-109238285D02*
X178406938Y-109190666D01*
X178406938Y-109190666D02*
X178359319Y-109095428D01*
X178102833Y-115590580D02*
X178055214Y-115638200D01*
X178055214Y-115638200D02*
X177912357Y-115685819D01*
X177912357Y-115685819D02*
X177817119Y-115685819D01*
X177817119Y-115685819D02*
X177674262Y-115638200D01*
X177674262Y-115638200D02*
X177579024Y-115542961D01*
X177579024Y-115542961D02*
X177531405Y-115447723D01*
X177531405Y-115447723D02*
X177483786Y-115257247D01*
X177483786Y-115257247D02*
X177483786Y-115114390D01*
X177483786Y-115114390D02*
X177531405Y-114923914D01*
X177531405Y-114923914D02*
X177579024Y-114828676D01*
X177579024Y-114828676D02*
X177674262Y-114733438D01*
X177674262Y-114733438D02*
X177817119Y-114685819D01*
X177817119Y-114685819D02*
X177912357Y-114685819D01*
X177912357Y-114685819D02*
X178055214Y-114733438D01*
X178055214Y-114733438D02*
X178102833Y-114781057D01*
X178579024Y-115685819D02*
X178769500Y-115685819D01*
X178769500Y-115685819D02*
X178864738Y-115638200D01*
X178864738Y-115638200D02*
X178912357Y-115590580D01*
X178912357Y-115590580D02*
X179007595Y-115447723D01*
X179007595Y-115447723D02*
X179055214Y-115257247D01*
X179055214Y-115257247D02*
X179055214Y-114876295D01*
X179055214Y-114876295D02*
X179007595Y-114781057D01*
X179007595Y-114781057D02*
X178959976Y-114733438D01*
X178959976Y-114733438D02*
X178864738Y-114685819D01*
X178864738Y-114685819D02*
X178674262Y-114685819D01*
X178674262Y-114685819D02*
X178579024Y-114733438D01*
X178579024Y-114733438D02*
X178531405Y-114781057D01*
X178531405Y-114781057D02*
X178483786Y-114876295D01*
X178483786Y-114876295D02*
X178483786Y-115114390D01*
X178483786Y-115114390D02*
X178531405Y-115209628D01*
X178531405Y-115209628D02*
X178579024Y-115257247D01*
X178579024Y-115257247D02*
X178674262Y-115304866D01*
X178674262Y-115304866D02*
X178864738Y-115304866D01*
X178864738Y-115304866D02*
X178959976Y-115257247D01*
X178959976Y-115257247D02*
X179007595Y-115209628D01*
X179007595Y-115209628D02*
X179055214Y-115114390D01*
X184198833Y-132100580D02*
X184151214Y-132148200D01*
X184151214Y-132148200D02*
X184008357Y-132195819D01*
X184008357Y-132195819D02*
X183913119Y-132195819D01*
X183913119Y-132195819D02*
X183770262Y-132148200D01*
X183770262Y-132148200D02*
X183675024Y-132052961D01*
X183675024Y-132052961D02*
X183627405Y-131957723D01*
X183627405Y-131957723D02*
X183579786Y-131767247D01*
X183579786Y-131767247D02*
X183579786Y-131624390D01*
X183579786Y-131624390D02*
X183627405Y-131433914D01*
X183627405Y-131433914D02*
X183675024Y-131338676D01*
X183675024Y-131338676D02*
X183770262Y-131243438D01*
X183770262Y-131243438D02*
X183913119Y-131195819D01*
X183913119Y-131195819D02*
X184008357Y-131195819D01*
X184008357Y-131195819D02*
X184151214Y-131243438D01*
X184151214Y-131243438D02*
X184198833Y-131291057D01*
X184532167Y-131195819D02*
X185198833Y-131195819D01*
X185198833Y-131195819D02*
X184770262Y-132195819D01*
X179277642Y-118860819D02*
X178944309Y-118384628D01*
X178706214Y-118860819D02*
X178706214Y-117860819D01*
X178706214Y-117860819D02*
X179087166Y-117860819D01*
X179087166Y-117860819D02*
X179182404Y-117908438D01*
X179182404Y-117908438D02*
X179230023Y-117956057D01*
X179230023Y-117956057D02*
X179277642Y-118051295D01*
X179277642Y-118051295D02*
X179277642Y-118194152D01*
X179277642Y-118194152D02*
X179230023Y-118289390D01*
X179230023Y-118289390D02*
X179182404Y-118337009D01*
X179182404Y-118337009D02*
X179087166Y-118384628D01*
X179087166Y-118384628D02*
X178706214Y-118384628D01*
X180230023Y-118860819D02*
X179658595Y-118860819D01*
X179944309Y-118860819D02*
X179944309Y-117860819D01*
X179944309Y-117860819D02*
X179849071Y-118003676D01*
X179849071Y-118003676D02*
X179753833Y-118098914D01*
X179753833Y-118098914D02*
X179658595Y-118146533D01*
X181087166Y-118194152D02*
X181087166Y-118860819D01*
X180849071Y-117813200D02*
X180610976Y-118527485D01*
X180610976Y-118527485D02*
X181230023Y-118527485D01*
X136259319Y-102731819D02*
X135925986Y-102255628D01*
X135687891Y-102731819D02*
X135687891Y-101731819D01*
X135687891Y-101731819D02*
X136068843Y-101731819D01*
X136068843Y-101731819D02*
X136164081Y-101779438D01*
X136164081Y-101779438D02*
X136211700Y-101827057D01*
X136211700Y-101827057D02*
X136259319Y-101922295D01*
X136259319Y-101922295D02*
X136259319Y-102065152D01*
X136259319Y-102065152D02*
X136211700Y-102160390D01*
X136211700Y-102160390D02*
X136164081Y-102208009D01*
X136164081Y-102208009D02*
X136068843Y-102255628D01*
X136068843Y-102255628D02*
X135687891Y-102255628D01*
X137164081Y-101731819D02*
X136687891Y-101731819D01*
X136687891Y-101731819D02*
X136640272Y-102208009D01*
X136640272Y-102208009D02*
X136687891Y-102160390D01*
X136687891Y-102160390D02*
X136783129Y-102112771D01*
X136783129Y-102112771D02*
X137021224Y-102112771D01*
X137021224Y-102112771D02*
X137116462Y-102160390D01*
X137116462Y-102160390D02*
X137164081Y-102208009D01*
X137164081Y-102208009D02*
X137211700Y-102303247D01*
X137211700Y-102303247D02*
X137211700Y-102541342D01*
X137211700Y-102541342D02*
X137164081Y-102636580D01*
X137164081Y-102636580D02*
X137116462Y-102684200D01*
X137116462Y-102684200D02*
X137021224Y-102731819D01*
X137021224Y-102731819D02*
X136783129Y-102731819D01*
X136783129Y-102731819D02*
X136687891Y-102684200D01*
X136687891Y-102684200D02*
X136640272Y-102636580D01*
X139430423Y-72273571D02*
X140430423Y-72273571D01*
X139430423Y-72844999D02*
X140001852Y-72416428D01*
X140430423Y-72844999D02*
X139858995Y-72273571D01*
X139954233Y-73273571D02*
X139954233Y-73606904D01*
X139430423Y-73749761D02*
X139430423Y-73273571D01*
X139430423Y-73273571D02*
X140430423Y-73273571D01*
X140430423Y-73273571D02*
X140430423Y-73749761D01*
X139906614Y-74368809D02*
X139430423Y-74368809D01*
X140430423Y-74035476D02*
X139906614Y-74368809D01*
X139906614Y-74368809D02*
X140430423Y-74702142D01*
X139430423Y-75035476D02*
X140430423Y-75035476D01*
X140430423Y-75035476D02*
X140430423Y-75416428D01*
X140430423Y-75416428D02*
X140382804Y-75511666D01*
X140382804Y-75511666D02*
X140335185Y-75559285D01*
X140335185Y-75559285D02*
X140239947Y-75606904D01*
X140239947Y-75606904D02*
X140097090Y-75606904D01*
X140097090Y-75606904D02*
X140001852Y-75559285D01*
X140001852Y-75559285D02*
X139954233Y-75511666D01*
X139954233Y-75511666D02*
X139906614Y-75416428D01*
X139906614Y-75416428D02*
X139906614Y-75035476D01*
X139716138Y-75987857D02*
X139716138Y-76464047D01*
X139430423Y-75892619D02*
X140430423Y-76225952D01*
X140430423Y-76225952D02*
X139430423Y-76559285D01*
X139430423Y-76892619D02*
X140430423Y-76892619D01*
X140430423Y-76892619D02*
X140430423Y-77130714D01*
X140430423Y-77130714D02*
X140382804Y-77273571D01*
X140382804Y-77273571D02*
X140287566Y-77368809D01*
X140287566Y-77368809D02*
X140192328Y-77416428D01*
X140192328Y-77416428D02*
X140001852Y-77464047D01*
X140001852Y-77464047D02*
X139858995Y-77464047D01*
X139858995Y-77464047D02*
X139668519Y-77416428D01*
X139668519Y-77416428D02*
X139573281Y-77368809D01*
X139573281Y-77368809D02*
X139478043Y-77273571D01*
X139478043Y-77273571D02*
X139430423Y-77130714D01*
X139430423Y-77130714D02*
X139430423Y-76892619D01*
X144098642Y-96127819D02*
X143765309Y-95651628D01*
X143527214Y-96127819D02*
X143527214Y-95127819D01*
X143527214Y-95127819D02*
X143908166Y-95127819D01*
X143908166Y-95127819D02*
X144003404Y-95175438D01*
X144003404Y-95175438D02*
X144051023Y-95223057D01*
X144051023Y-95223057D02*
X144098642Y-95318295D01*
X144098642Y-95318295D02*
X144098642Y-95461152D01*
X144098642Y-95461152D02*
X144051023Y-95556390D01*
X144051023Y-95556390D02*
X144003404Y-95604009D01*
X144003404Y-95604009D02*
X143908166Y-95651628D01*
X143908166Y-95651628D02*
X143527214Y-95651628D01*
X144431976Y-95127819D02*
X145051023Y-95127819D01*
X145051023Y-95127819D02*
X144717690Y-95508771D01*
X144717690Y-95508771D02*
X144860547Y-95508771D01*
X144860547Y-95508771D02*
X144955785Y-95556390D01*
X144955785Y-95556390D02*
X145003404Y-95604009D01*
X145003404Y-95604009D02*
X145051023Y-95699247D01*
X145051023Y-95699247D02*
X145051023Y-95937342D01*
X145051023Y-95937342D02*
X145003404Y-96032580D01*
X145003404Y-96032580D02*
X144955785Y-96080200D01*
X144955785Y-96080200D02*
X144860547Y-96127819D01*
X144860547Y-96127819D02*
X144574833Y-96127819D01*
X144574833Y-96127819D02*
X144479595Y-96080200D01*
X144479595Y-96080200D02*
X144431976Y-96032580D01*
X145384357Y-95127819D02*
X146003404Y-95127819D01*
X146003404Y-95127819D02*
X145670071Y-95508771D01*
X145670071Y-95508771D02*
X145812928Y-95508771D01*
X145812928Y-95508771D02*
X145908166Y-95556390D01*
X145908166Y-95556390D02*
X145955785Y-95604009D01*
X145955785Y-95604009D02*
X146003404Y-95699247D01*
X146003404Y-95699247D02*
X146003404Y-95937342D01*
X146003404Y-95937342D02*
X145955785Y-96032580D01*
X145955785Y-96032580D02*
X145908166Y-96080200D01*
X145908166Y-96080200D02*
X145812928Y-96127819D01*
X145812928Y-96127819D02*
X145527214Y-96127819D01*
X145527214Y-96127819D02*
X145431976Y-96080200D01*
X145431976Y-96080200D02*
X145384357Y-96032580D01*
X140669642Y-110097819D02*
X140336309Y-109621628D01*
X140098214Y-110097819D02*
X140098214Y-109097819D01*
X140098214Y-109097819D02*
X140479166Y-109097819D01*
X140479166Y-109097819D02*
X140574404Y-109145438D01*
X140574404Y-109145438D02*
X140622023Y-109193057D01*
X140622023Y-109193057D02*
X140669642Y-109288295D01*
X140669642Y-109288295D02*
X140669642Y-109431152D01*
X140669642Y-109431152D02*
X140622023Y-109526390D01*
X140622023Y-109526390D02*
X140574404Y-109574009D01*
X140574404Y-109574009D02*
X140479166Y-109621628D01*
X140479166Y-109621628D02*
X140098214Y-109621628D01*
X141050595Y-109193057D02*
X141098214Y-109145438D01*
X141098214Y-109145438D02*
X141193452Y-109097819D01*
X141193452Y-109097819D02*
X141431547Y-109097819D01*
X141431547Y-109097819D02*
X141526785Y-109145438D01*
X141526785Y-109145438D02*
X141574404Y-109193057D01*
X141574404Y-109193057D02*
X141622023Y-109288295D01*
X141622023Y-109288295D02*
X141622023Y-109383533D01*
X141622023Y-109383533D02*
X141574404Y-109526390D01*
X141574404Y-109526390D02*
X141002976Y-110097819D01*
X141002976Y-110097819D02*
X141622023Y-110097819D01*
X142241071Y-109097819D02*
X142336309Y-109097819D01*
X142336309Y-109097819D02*
X142431547Y-109145438D01*
X142431547Y-109145438D02*
X142479166Y-109193057D01*
X142479166Y-109193057D02*
X142526785Y-109288295D01*
X142526785Y-109288295D02*
X142574404Y-109478771D01*
X142574404Y-109478771D02*
X142574404Y-109716866D01*
X142574404Y-109716866D02*
X142526785Y-109907342D01*
X142526785Y-109907342D02*
X142479166Y-110002580D01*
X142479166Y-110002580D02*
X142431547Y-110050200D01*
X142431547Y-110050200D02*
X142336309Y-110097819D01*
X142336309Y-110097819D02*
X142241071Y-110097819D01*
X142241071Y-110097819D02*
X142145833Y-110050200D01*
X142145833Y-110050200D02*
X142098214Y-110002580D01*
X142098214Y-110002580D02*
X142050595Y-109907342D01*
X142050595Y-109907342D02*
X142002976Y-109716866D01*
X142002976Y-109716866D02*
X142002976Y-109478771D01*
X142002976Y-109478771D02*
X142050595Y-109288295D01*
X142050595Y-109288295D02*
X142098214Y-109193057D01*
X142098214Y-109193057D02*
X142145833Y-109145438D01*
X142145833Y-109145438D02*
X142241071Y-109097819D01*
X177499642Y-105652819D02*
X177166309Y-105176628D01*
X176928214Y-105652819D02*
X176928214Y-104652819D01*
X176928214Y-104652819D02*
X177309166Y-104652819D01*
X177309166Y-104652819D02*
X177404404Y-104700438D01*
X177404404Y-104700438D02*
X177452023Y-104748057D01*
X177452023Y-104748057D02*
X177499642Y-104843295D01*
X177499642Y-104843295D02*
X177499642Y-104986152D01*
X177499642Y-104986152D02*
X177452023Y-105081390D01*
X177452023Y-105081390D02*
X177404404Y-105129009D01*
X177404404Y-105129009D02*
X177309166Y-105176628D01*
X177309166Y-105176628D02*
X176928214Y-105176628D01*
X178452023Y-105652819D02*
X177880595Y-105652819D01*
X178166309Y-105652819D02*
X178166309Y-104652819D01*
X178166309Y-104652819D02*
X178071071Y-104795676D01*
X178071071Y-104795676D02*
X177975833Y-104890914D01*
X177975833Y-104890914D02*
X177880595Y-104938533D01*
X178832976Y-104748057D02*
X178880595Y-104700438D01*
X178880595Y-104700438D02*
X178975833Y-104652819D01*
X178975833Y-104652819D02*
X179213928Y-104652819D01*
X179213928Y-104652819D02*
X179309166Y-104700438D01*
X179309166Y-104700438D02*
X179356785Y-104748057D01*
X179356785Y-104748057D02*
X179404404Y-104843295D01*
X179404404Y-104843295D02*
X179404404Y-104938533D01*
X179404404Y-104938533D02*
X179356785Y-105081390D01*
X179356785Y-105081390D02*
X178785357Y-105652819D01*
X178785357Y-105652819D02*
X179404404Y-105652819D01*
X140669642Y-108827819D02*
X140336309Y-108351628D01*
X140098214Y-108827819D02*
X140098214Y-107827819D01*
X140098214Y-107827819D02*
X140479166Y-107827819D01*
X140479166Y-107827819D02*
X140574404Y-107875438D01*
X140574404Y-107875438D02*
X140622023Y-107923057D01*
X140622023Y-107923057D02*
X140669642Y-108018295D01*
X140669642Y-108018295D02*
X140669642Y-108161152D01*
X140669642Y-108161152D02*
X140622023Y-108256390D01*
X140622023Y-108256390D02*
X140574404Y-108304009D01*
X140574404Y-108304009D02*
X140479166Y-108351628D01*
X140479166Y-108351628D02*
X140098214Y-108351628D01*
X141050595Y-107923057D02*
X141098214Y-107875438D01*
X141098214Y-107875438D02*
X141193452Y-107827819D01*
X141193452Y-107827819D02*
X141431547Y-107827819D01*
X141431547Y-107827819D02*
X141526785Y-107875438D01*
X141526785Y-107875438D02*
X141574404Y-107923057D01*
X141574404Y-107923057D02*
X141622023Y-108018295D01*
X141622023Y-108018295D02*
X141622023Y-108113533D01*
X141622023Y-108113533D02*
X141574404Y-108256390D01*
X141574404Y-108256390D02*
X141002976Y-108827819D01*
X141002976Y-108827819D02*
X141622023Y-108827819D01*
X142002976Y-107923057D02*
X142050595Y-107875438D01*
X142050595Y-107875438D02*
X142145833Y-107827819D01*
X142145833Y-107827819D02*
X142383928Y-107827819D01*
X142383928Y-107827819D02*
X142479166Y-107875438D01*
X142479166Y-107875438D02*
X142526785Y-107923057D01*
X142526785Y-107923057D02*
X142574404Y-108018295D01*
X142574404Y-108018295D02*
X142574404Y-108113533D01*
X142574404Y-108113533D02*
X142526785Y-108256390D01*
X142526785Y-108256390D02*
X141955357Y-108827819D01*
X141955357Y-108827819D02*
X142574404Y-108827819D01*
X153198823Y-112952857D02*
X153246443Y-113000476D01*
X153246443Y-113000476D02*
X153294062Y-113143333D01*
X153294062Y-113143333D02*
X153294062Y-113238571D01*
X153294062Y-113238571D02*
X153246443Y-113381428D01*
X153246443Y-113381428D02*
X153151204Y-113476666D01*
X153151204Y-113476666D02*
X153055966Y-113524285D01*
X153055966Y-113524285D02*
X152865490Y-113571904D01*
X152865490Y-113571904D02*
X152722633Y-113571904D01*
X152722633Y-113571904D02*
X152532157Y-113524285D01*
X152532157Y-113524285D02*
X152436919Y-113476666D01*
X152436919Y-113476666D02*
X152341681Y-113381428D01*
X152341681Y-113381428D02*
X152294062Y-113238571D01*
X152294062Y-113238571D02*
X152294062Y-113143333D01*
X152294062Y-113143333D02*
X152341681Y-113000476D01*
X152341681Y-113000476D02*
X152389300Y-112952857D01*
X152389300Y-112571904D02*
X152341681Y-112524285D01*
X152341681Y-112524285D02*
X152294062Y-112429047D01*
X152294062Y-112429047D02*
X152294062Y-112190952D01*
X152294062Y-112190952D02*
X152341681Y-112095714D01*
X152341681Y-112095714D02*
X152389300Y-112048095D01*
X152389300Y-112048095D02*
X152484538Y-112000476D01*
X152484538Y-112000476D02*
X152579776Y-112000476D01*
X152579776Y-112000476D02*
X152722633Y-112048095D01*
X152722633Y-112048095D02*
X153294062Y-112619523D01*
X153294062Y-112619523D02*
X153294062Y-112000476D01*
X152294062Y-111095714D02*
X152294062Y-111571904D01*
X152294062Y-111571904D02*
X152770252Y-111619523D01*
X152770252Y-111619523D02*
X152722633Y-111571904D01*
X152722633Y-111571904D02*
X152675014Y-111476666D01*
X152675014Y-111476666D02*
X152675014Y-111238571D01*
X152675014Y-111238571D02*
X152722633Y-111143333D01*
X152722633Y-111143333D02*
X152770252Y-111095714D01*
X152770252Y-111095714D02*
X152865490Y-111048095D01*
X152865490Y-111048095D02*
X153103585Y-111048095D01*
X153103585Y-111048095D02*
X153198823Y-111095714D01*
X153198823Y-111095714D02*
X153246443Y-111143333D01*
X153246443Y-111143333D02*
X153294062Y-111238571D01*
X153294062Y-111238571D02*
X153294062Y-111476666D01*
X153294062Y-111476666D02*
X153246443Y-111571904D01*
X153246443Y-111571904D02*
X153198823Y-111619523D01*
X108705319Y-97323904D02*
X109514842Y-97323904D01*
X109514842Y-97323904D02*
X109610080Y-97276285D01*
X109610080Y-97276285D02*
X109657700Y-97228666D01*
X109657700Y-97228666D02*
X109705319Y-97133428D01*
X109705319Y-97133428D02*
X109705319Y-96942952D01*
X109705319Y-96942952D02*
X109657700Y-96847714D01*
X109657700Y-96847714D02*
X109610080Y-96800095D01*
X109610080Y-96800095D02*
X109514842Y-96752476D01*
X109514842Y-96752476D02*
X108705319Y-96752476D01*
X108705319Y-95800095D02*
X108705319Y-96276285D01*
X108705319Y-96276285D02*
X109181509Y-96323904D01*
X109181509Y-96323904D02*
X109133890Y-96276285D01*
X109133890Y-96276285D02*
X109086271Y-96181047D01*
X109086271Y-96181047D02*
X109086271Y-95942952D01*
X109086271Y-95942952D02*
X109133890Y-95847714D01*
X109133890Y-95847714D02*
X109181509Y-95800095D01*
X109181509Y-95800095D02*
X109276747Y-95752476D01*
X109276747Y-95752476D02*
X109514842Y-95752476D01*
X109514842Y-95752476D02*
X109610080Y-95800095D01*
X109610080Y-95800095D02*
X109657700Y-95847714D01*
X109657700Y-95847714D02*
X109705319Y-95942952D01*
X109705319Y-95942952D02*
X109705319Y-96181047D01*
X109705319Y-96181047D02*
X109657700Y-96276285D01*
X109657700Y-96276285D02*
X109610080Y-96323904D01*
X175975685Y-109335819D02*
X175642352Y-108859628D01*
X175404257Y-109335819D02*
X175404257Y-108335819D01*
X175404257Y-108335819D02*
X175785209Y-108335819D01*
X175785209Y-108335819D02*
X175880447Y-108383438D01*
X175880447Y-108383438D02*
X175928066Y-108431057D01*
X175928066Y-108431057D02*
X175975685Y-108526295D01*
X175975685Y-108526295D02*
X175975685Y-108669152D01*
X175975685Y-108669152D02*
X175928066Y-108764390D01*
X175928066Y-108764390D02*
X175880447Y-108812009D01*
X175880447Y-108812009D02*
X175785209Y-108859628D01*
X175785209Y-108859628D02*
X175404257Y-108859628D01*
X176928066Y-109335819D02*
X176356638Y-109335819D01*
X176642352Y-109335819D02*
X176642352Y-108335819D01*
X176642352Y-108335819D02*
X176547114Y-108478676D01*
X176547114Y-108478676D02*
X176451876Y-108573914D01*
X176451876Y-108573914D02*
X176356638Y-108621533D01*
X177261400Y-108335819D02*
X177880447Y-108335819D01*
X177880447Y-108335819D02*
X177547114Y-108716771D01*
X177547114Y-108716771D02*
X177689971Y-108716771D01*
X177689971Y-108716771D02*
X177785209Y-108764390D01*
X177785209Y-108764390D02*
X177832828Y-108812009D01*
X177832828Y-108812009D02*
X177880447Y-108907247D01*
X177880447Y-108907247D02*
X177880447Y-109145342D01*
X177880447Y-109145342D02*
X177832828Y-109240580D01*
X177832828Y-109240580D02*
X177785209Y-109288200D01*
X177785209Y-109288200D02*
X177689971Y-109335819D01*
X177689971Y-109335819D02*
X177404257Y-109335819D01*
X177404257Y-109335819D02*
X177309019Y-109288200D01*
X177309019Y-109288200D02*
X177261400Y-109240580D01*
X154482385Y-111018580D02*
X154434766Y-111066200D01*
X154434766Y-111066200D02*
X154291909Y-111113819D01*
X154291909Y-111113819D02*
X154196671Y-111113819D01*
X154196671Y-111113819D02*
X154053814Y-111066200D01*
X154053814Y-111066200D02*
X153958576Y-110970961D01*
X153958576Y-110970961D02*
X153910957Y-110875723D01*
X153910957Y-110875723D02*
X153863338Y-110685247D01*
X153863338Y-110685247D02*
X153863338Y-110542390D01*
X153863338Y-110542390D02*
X153910957Y-110351914D01*
X153910957Y-110351914D02*
X153958576Y-110256676D01*
X153958576Y-110256676D02*
X154053814Y-110161438D01*
X154053814Y-110161438D02*
X154196671Y-110113819D01*
X154196671Y-110113819D02*
X154291909Y-110113819D01*
X154291909Y-110113819D02*
X154434766Y-110161438D01*
X154434766Y-110161438D02*
X154482385Y-110209057D01*
X154863338Y-110209057D02*
X154910957Y-110161438D01*
X154910957Y-110161438D02*
X155006195Y-110113819D01*
X155006195Y-110113819D02*
X155244290Y-110113819D01*
X155244290Y-110113819D02*
X155339528Y-110161438D01*
X155339528Y-110161438D02*
X155387147Y-110209057D01*
X155387147Y-110209057D02*
X155434766Y-110304295D01*
X155434766Y-110304295D02*
X155434766Y-110399533D01*
X155434766Y-110399533D02*
X155387147Y-110542390D01*
X155387147Y-110542390D02*
X154815719Y-111113819D01*
X154815719Y-111113819D02*
X155434766Y-111113819D01*
X156291909Y-110447152D02*
X156291909Y-111113819D01*
X156053814Y-110066200D02*
X155815719Y-110780485D01*
X155815719Y-110780485D02*
X156434766Y-110780485D01*
X148540880Y-87374166D02*
X147826595Y-87374166D01*
X147826595Y-87374166D02*
X147683738Y-87326547D01*
X147683738Y-87326547D02*
X147588500Y-87231309D01*
X147588500Y-87231309D02*
X147540880Y-87088452D01*
X147540880Y-87088452D02*
X147540880Y-86993214D01*
X147540880Y-88374166D02*
X147540880Y-87802738D01*
X147540880Y-88088452D02*
X148540880Y-88088452D01*
X148540880Y-88088452D02*
X148398023Y-87993214D01*
X148398023Y-87993214D02*
X148302785Y-87897976D01*
X148302785Y-87897976D02*
X148255166Y-87802738D01*
X188516833Y-112923580D02*
X188469214Y-112971200D01*
X188469214Y-112971200D02*
X188326357Y-113018819D01*
X188326357Y-113018819D02*
X188231119Y-113018819D01*
X188231119Y-113018819D02*
X188088262Y-112971200D01*
X188088262Y-112971200D02*
X187993024Y-112875961D01*
X187993024Y-112875961D02*
X187945405Y-112780723D01*
X187945405Y-112780723D02*
X187897786Y-112590247D01*
X187897786Y-112590247D02*
X187897786Y-112447390D01*
X187897786Y-112447390D02*
X187945405Y-112256914D01*
X187945405Y-112256914D02*
X187993024Y-112161676D01*
X187993024Y-112161676D02*
X188088262Y-112066438D01*
X188088262Y-112066438D02*
X188231119Y-112018819D01*
X188231119Y-112018819D02*
X188326357Y-112018819D01*
X188326357Y-112018819D02*
X188469214Y-112066438D01*
X188469214Y-112066438D02*
X188516833Y-112114057D01*
X189469214Y-113018819D02*
X188897786Y-113018819D01*
X189183500Y-113018819D02*
X189183500Y-112018819D01*
X189183500Y-112018819D02*
X189088262Y-112161676D01*
X189088262Y-112161676D02*
X188993024Y-112256914D01*
X188993024Y-112256914D02*
X188897786Y-112304533D01*
X176451833Y-103652580D02*
X176404214Y-103700200D01*
X176404214Y-103700200D02*
X176261357Y-103747819D01*
X176261357Y-103747819D02*
X176166119Y-103747819D01*
X176166119Y-103747819D02*
X176023262Y-103700200D01*
X176023262Y-103700200D02*
X175928024Y-103604961D01*
X175928024Y-103604961D02*
X175880405Y-103509723D01*
X175880405Y-103509723D02*
X175832786Y-103319247D01*
X175832786Y-103319247D02*
X175832786Y-103176390D01*
X175832786Y-103176390D02*
X175880405Y-102985914D01*
X175880405Y-102985914D02*
X175928024Y-102890676D01*
X175928024Y-102890676D02*
X176023262Y-102795438D01*
X176023262Y-102795438D02*
X176166119Y-102747819D01*
X176166119Y-102747819D02*
X176261357Y-102747819D01*
X176261357Y-102747819D02*
X176404214Y-102795438D01*
X176404214Y-102795438D02*
X176451833Y-102843057D01*
X177356595Y-102747819D02*
X176880405Y-102747819D01*
X176880405Y-102747819D02*
X176832786Y-103224009D01*
X176832786Y-103224009D02*
X176880405Y-103176390D01*
X176880405Y-103176390D02*
X176975643Y-103128771D01*
X176975643Y-103128771D02*
X177213738Y-103128771D01*
X177213738Y-103128771D02*
X177308976Y-103176390D01*
X177308976Y-103176390D02*
X177356595Y-103224009D01*
X177356595Y-103224009D02*
X177404214Y-103319247D01*
X177404214Y-103319247D02*
X177404214Y-103557342D01*
X177404214Y-103557342D02*
X177356595Y-103652580D01*
X177356595Y-103652580D02*
X177308976Y-103700200D01*
X177308976Y-103700200D02*
X177213738Y-103747819D01*
X177213738Y-103747819D02*
X176975643Y-103747819D01*
X176975643Y-103747819D02*
X176880405Y-103700200D01*
X176880405Y-103700200D02*
X176832786Y-103652580D01*
X172533080Y-101173666D02*
X172580700Y-101221285D01*
X172580700Y-101221285D02*
X172628319Y-101364142D01*
X172628319Y-101364142D02*
X172628319Y-101459380D01*
X172628319Y-101459380D02*
X172580700Y-101602237D01*
X172580700Y-101602237D02*
X172485461Y-101697475D01*
X172485461Y-101697475D02*
X172390223Y-101745094D01*
X172390223Y-101745094D02*
X172199747Y-101792713D01*
X172199747Y-101792713D02*
X172056890Y-101792713D01*
X172056890Y-101792713D02*
X171866414Y-101745094D01*
X171866414Y-101745094D02*
X171771176Y-101697475D01*
X171771176Y-101697475D02*
X171675938Y-101602237D01*
X171675938Y-101602237D02*
X171628319Y-101459380D01*
X171628319Y-101459380D02*
X171628319Y-101364142D01*
X171628319Y-101364142D02*
X171675938Y-101221285D01*
X171675938Y-101221285D02*
X171723557Y-101173666D01*
X171961652Y-100316523D02*
X172628319Y-100316523D01*
X171580700Y-100554618D02*
X172294985Y-100792713D01*
X172294985Y-100792713D02*
X172294985Y-100173666D01*
X173911833Y-113685580D02*
X173864214Y-113733200D01*
X173864214Y-113733200D02*
X173721357Y-113780819D01*
X173721357Y-113780819D02*
X173626119Y-113780819D01*
X173626119Y-113780819D02*
X173483262Y-113733200D01*
X173483262Y-113733200D02*
X173388024Y-113637961D01*
X173388024Y-113637961D02*
X173340405Y-113542723D01*
X173340405Y-113542723D02*
X173292786Y-113352247D01*
X173292786Y-113352247D02*
X173292786Y-113209390D01*
X173292786Y-113209390D02*
X173340405Y-113018914D01*
X173340405Y-113018914D02*
X173388024Y-112923676D01*
X173388024Y-112923676D02*
X173483262Y-112828438D01*
X173483262Y-112828438D02*
X173626119Y-112780819D01*
X173626119Y-112780819D02*
X173721357Y-112780819D01*
X173721357Y-112780819D02*
X173864214Y-112828438D01*
X173864214Y-112828438D02*
X173911833Y-112876057D01*
X174483262Y-113209390D02*
X174388024Y-113161771D01*
X174388024Y-113161771D02*
X174340405Y-113114152D01*
X174340405Y-113114152D02*
X174292786Y-113018914D01*
X174292786Y-113018914D02*
X174292786Y-112971295D01*
X174292786Y-112971295D02*
X174340405Y-112876057D01*
X174340405Y-112876057D02*
X174388024Y-112828438D01*
X174388024Y-112828438D02*
X174483262Y-112780819D01*
X174483262Y-112780819D02*
X174673738Y-112780819D01*
X174673738Y-112780819D02*
X174768976Y-112828438D01*
X174768976Y-112828438D02*
X174816595Y-112876057D01*
X174816595Y-112876057D02*
X174864214Y-112971295D01*
X174864214Y-112971295D02*
X174864214Y-113018914D01*
X174864214Y-113018914D02*
X174816595Y-113114152D01*
X174816595Y-113114152D02*
X174768976Y-113161771D01*
X174768976Y-113161771D02*
X174673738Y-113209390D01*
X174673738Y-113209390D02*
X174483262Y-113209390D01*
X174483262Y-113209390D02*
X174388024Y-113257009D01*
X174388024Y-113257009D02*
X174340405Y-113304628D01*
X174340405Y-113304628D02*
X174292786Y-113399866D01*
X174292786Y-113399866D02*
X174292786Y-113590342D01*
X174292786Y-113590342D02*
X174340405Y-113685580D01*
X174340405Y-113685580D02*
X174388024Y-113733200D01*
X174388024Y-113733200D02*
X174483262Y-113780819D01*
X174483262Y-113780819D02*
X174673738Y-113780819D01*
X174673738Y-113780819D02*
X174768976Y-113733200D01*
X174768976Y-113733200D02*
X174816595Y-113685580D01*
X174816595Y-113685580D02*
X174864214Y-113590342D01*
X174864214Y-113590342D02*
X174864214Y-113399866D01*
X174864214Y-113399866D02*
X174816595Y-113304628D01*
X174816595Y-113304628D02*
X174768976Y-113257009D01*
X174768976Y-113257009D02*
X174673738Y-113209390D01*
D12*
%TO.C,JP8*%
X140534500Y-117387000D02*
X140534500Y-120187000D01*
X138534500Y-117387000D02*
X140534500Y-117387000D01*
X140534500Y-120187000D02*
X138534500Y-120187000D01*
X138534500Y-120187000D02*
X138534500Y-117387000D01*
%TO.C,TP11*%
X157473243Y-85956000D02*
X158873243Y-85956000D01*
X157473243Y-87356000D02*
X157473243Y-85956000D01*
X158873243Y-85956000D02*
X158873243Y-87356000D01*
X158873243Y-87356000D02*
X157473243Y-87356000D01*
%TO.C,C3*%
X166853080Y-113455000D02*
X166571920Y-113455000D01*
X166853080Y-112435000D02*
X166571920Y-112435000D01*
%TO.C,R11*%
X181544564Y-115077000D02*
X181090436Y-115077000D01*
X181544564Y-113607000D02*
X181090436Y-113607000D01*
%TO.C,C13*%
X147995752Y-119316000D02*
X146573248Y-119316000D01*
X147995752Y-117496000D02*
X146573248Y-117496000D01*
%TO.C,R1*%
X163756258Y-103792500D02*
X163281742Y-103792500D01*
X163756258Y-102747500D02*
X163281742Y-102747500D01*
%TO.C,TP46*%
X135659500Y-110467000D02*
X137059500Y-110467000D01*
X135659500Y-111867000D02*
X135659500Y-110467000D01*
X137059500Y-110467000D02*
X137059500Y-111867000D01*
X137059500Y-111867000D02*
X135659500Y-111867000D01*
%TO.C,U1*%
X181959500Y-105862000D02*
X182909500Y-105862000D01*
X182909500Y-105862000D02*
X182909500Y-110987000D01*
X191409500Y-105862000D02*
X191409500Y-106962000D01*
X192359500Y-105862000D02*
X191409500Y-105862000D01*
X181959500Y-104362000D02*
X181959500Y-105862000D01*
X192359500Y-104362000D02*
X192359500Y-105862000D01*
%TO.C,U6*%
X175921500Y-140982000D02*
X175921500Y-134567000D01*
X175921500Y-140982000D02*
X157681500Y-140982000D01*
X175921500Y-134567000D02*
X176301500Y-134567000D01*
X175921500Y-116022000D02*
X175921500Y-115242000D01*
X175921500Y-115242000D02*
X174921500Y-115242000D01*
X157681500Y-140982000D02*
X157681500Y-134567000D01*
X157681500Y-116022000D02*
X157681500Y-115242000D01*
X157681500Y-115242000D02*
X158681500Y-115242000D01*
%TO.C,T40*%
X155090500Y-100815000D02*
X156490500Y-100815000D01*
X155090500Y-102215000D02*
X155090500Y-100815000D01*
X156490500Y-100815000D02*
X156490500Y-102215000D01*
X156490500Y-102215000D02*
X155090500Y-102215000D01*
%TO.C,D7*%
X154655500Y-118913000D02*
X156925500Y-118913000D01*
X156925500Y-118913000D02*
X156925500Y-115028000D01*
X154655500Y-115028000D02*
X154655500Y-118913000D01*
%TO.C,C28*%
X152223920Y-104180000D02*
X152505080Y-104180000D01*
X152223920Y-105200000D02*
X152505080Y-105200000D01*
%TO.C,C19*%
X144742500Y-99750580D02*
X144742500Y-99469420D01*
X145762500Y-99750580D02*
X145762500Y-99469420D01*
%TO.C,J6*%
X151345500Y-118787000D02*
X152742500Y-118787000D01*
X151441500Y-113884000D02*
X152671500Y-113884000D01*
X152671500Y-113599000D02*
X152671500Y-113884000D01*
X152671500Y-113599000D02*
X153504500Y-113599000D01*
X152742500Y-118787000D02*
X152742500Y-119041000D01*
X152742500Y-119041000D02*
X153504500Y-119041000D01*
X153504500Y-113599000D02*
X153504500Y-119041000D01*
%TO.C,C20*%
X148363000Y-100845252D02*
X148363000Y-100322748D01*
X149833000Y-100845252D02*
X149833000Y-100322748D01*
%TO.C,R2*%
X159361000Y-101277742D02*
X159361000Y-101752258D01*
X158316000Y-101277742D02*
X158316000Y-101752258D01*
%TO.C,J4*%
X166847500Y-95527000D02*
X167847500Y-95527000D01*
X167847500Y-95527000D02*
X167347500Y-94527000D01*
X167347500Y-94527000D02*
X166847500Y-95527000D01*
X162137500Y-94137000D02*
X162137500Y-85017000D01*
X170377500Y-94137000D02*
X170377500Y-92827000D01*
X182717500Y-94137000D02*
X162137500Y-94137000D01*
X163437500Y-92827000D02*
X163437500Y-86327000D01*
X170377500Y-92827000D02*
X163437500Y-92827000D01*
X174477500Y-92827000D02*
X174477500Y-94137000D01*
X174477500Y-92827000D02*
X174477500Y-92827000D01*
X181417500Y-92827000D02*
X174477500Y-92827000D01*
X163437500Y-86327000D02*
X181417500Y-86327000D01*
X181417500Y-86327000D02*
X181417500Y-92827000D01*
X162137500Y-85017000D02*
X182717500Y-85017000D01*
X182717500Y-85017000D02*
X182717500Y-94137000D01*
%TO.C,R21*%
X145279436Y-114496000D02*
X145733564Y-114496000D01*
X145279436Y-115966000D02*
X145733564Y-115966000D01*
%TO.C,R4*%
X163012758Y-113086500D02*
X162538242Y-113086500D01*
X163012758Y-112041500D02*
X162538242Y-112041500D01*
%TO.C,C14*%
X140731248Y-114956000D02*
X142153752Y-114956000D01*
X140731248Y-116776000D02*
X142153752Y-116776000D01*
%TO.C,R3*%
X162538242Y-110517500D02*
X163012758Y-110517500D01*
X162538242Y-111562500D02*
X163012758Y-111562500D01*
%TO.C,J11*%
X149831500Y-78588000D02*
X157511500Y-78588000D01*
X149831500Y-78588000D02*
X149831500Y-75928000D01*
X157511500Y-78588000D02*
X157511500Y-75928000D01*
X147231500Y-77258000D02*
X147231500Y-75928000D01*
X147231500Y-75928000D02*
X148561500Y-75928000D01*
X149831500Y-75928000D02*
X157511500Y-75928000D01*
%TO.C,TP8*%
X178458500Y-95227000D02*
X179858500Y-95227000D01*
X178458500Y-96627000D02*
X178458500Y-95227000D01*
X179858500Y-95227000D02*
X179858500Y-96627000D01*
X179858500Y-96627000D02*
X178458500Y-96627000D01*
%TO.C,TP6*%
X159632243Y-85956000D02*
X161032243Y-85956000D01*
X159632243Y-87356000D02*
X159632243Y-85956000D01*
X161032243Y-85956000D02*
X161032243Y-87356000D01*
X161032243Y-87356000D02*
X159632243Y-87356000D01*
%TO.C,T41*%
X155090500Y-102847000D02*
X156490500Y-102847000D01*
X155090500Y-104247000D02*
X155090500Y-102847000D01*
X156490500Y-102847000D02*
X156490500Y-104247000D01*
X156490500Y-104247000D02*
X155090500Y-104247000D01*
%TO.C,U8*%
X135031500Y-95869000D02*
X135031500Y-96129000D01*
X135031500Y-96129000D02*
X133356500Y-96129000D01*
X135031500Y-101319000D02*
X135031500Y-101059000D01*
X137756500Y-95869000D02*
X135031500Y-95869000D01*
X137756500Y-95869000D02*
X140481500Y-95869000D01*
X137756500Y-101319000D02*
X135031500Y-101319000D01*
X137756500Y-101319000D02*
X140481500Y-101319000D01*
X140481500Y-95869000D02*
X140481500Y-96129000D01*
X140481500Y-101319000D02*
X140481500Y-101059000D01*
%TO.C,D8*%
X154385500Y-94023000D02*
X152115500Y-94023000D01*
X152115500Y-94023000D02*
X152115500Y-97908000D01*
X154385500Y-97908000D02*
X154385500Y-94023000D01*
%TO.C,TP47*%
X135659500Y-112499000D02*
X137059500Y-112499000D01*
X135659500Y-113899000D02*
X135659500Y-112499000D01*
X137059500Y-112499000D02*
X137059500Y-113899000D01*
X137059500Y-113899000D02*
X135659500Y-113899000D01*
D10*
%TO.C,J3*%
X115017500Y-139507000D02*
X114517500Y-140007000D01*
X115017500Y-138707000D02*
X115017500Y-139507000D01*
X114517500Y-140007000D02*
X110917500Y-140007000D01*
X114517500Y-138207000D02*
X115017500Y-138707000D01*
X110917500Y-140007000D02*
X110417500Y-139507000D01*
X110917500Y-138207000D02*
X114517500Y-138207000D01*
X110417500Y-139507000D02*
X110417500Y-138707000D01*
X110417500Y-138707000D02*
X110917500Y-138207000D01*
D12*
%TO.C,C12*%
X179807080Y-129584000D02*
X179525920Y-129584000D01*
X179807080Y-128564000D02*
X179525920Y-128564000D01*
%TO.C,TP3*%
X132835243Y-102212000D02*
X134235243Y-102212000D01*
X132835243Y-103612000D02*
X132835243Y-102212000D01*
X134235243Y-102212000D02*
X134235243Y-103612000D01*
X134235243Y-103612000D02*
X132835243Y-103612000D01*
%TO.C,C11*%
X168262500Y-102687580D02*
X168262500Y-102406420D01*
X169282500Y-102687580D02*
X169282500Y-102406420D01*
%TO.C,Y1*%
X141930500Y-118164000D02*
X141930500Y-117374000D01*
X142110500Y-118804000D02*
X142110500Y-119024000D01*
X142720500Y-117374000D02*
X141930500Y-117374000D01*
X144330500Y-118804000D02*
X144330500Y-119024000D01*
%TO.C,C22*%
X140282920Y-94274000D02*
X140564080Y-94274000D01*
X140282920Y-95294000D02*
X140564080Y-95294000D01*
%TO.C,TP45*%
X136421500Y-105133000D02*
X137821500Y-105133000D01*
X136421500Y-106533000D02*
X136421500Y-105133000D01*
X137821500Y-105133000D02*
X137821500Y-106533000D01*
X137821500Y-106533000D02*
X136421500Y-106533000D01*
%TO.C,JP5*%
X166095500Y-99213000D02*
X161995500Y-99213000D01*
X166095500Y-97213000D02*
X166095500Y-99213000D01*
X161995500Y-99213000D02*
X161995500Y-97213000D01*
X161995500Y-97213000D02*
X166095500Y-97213000D01*
%TO.C,R8*%
X150565064Y-94630000D02*
X150110936Y-94630000D01*
X150565064Y-93160000D02*
X150110936Y-93160000D01*
%TO.C,U7*%
X143036500Y-111864500D02*
X143036500Y-111214500D01*
X143686500Y-104644500D02*
X143036500Y-104644500D01*
X143686500Y-111864500D02*
X143036500Y-111864500D01*
X149606500Y-104644500D02*
X150256500Y-104644500D01*
X149606500Y-111864500D02*
X150256500Y-111864500D01*
X150256500Y-104644500D02*
X150256500Y-105294500D01*
X150256500Y-111864500D02*
X150256500Y-111214500D01*
%TO.C,R9*%
X180147500Y-98620936D02*
X180147500Y-99075064D01*
X178677500Y-98620936D02*
X178677500Y-99075064D01*
%TO.C,R28*%
X180020500Y-131767936D02*
X180020500Y-132222064D01*
X178550500Y-131767936D02*
X178550500Y-132222064D01*
%TO.C,C2*%
X179934080Y-120186000D02*
X179652920Y-120186000D01*
X179934080Y-119166000D02*
X179652920Y-119166000D01*
%TO.C,R24*%
X134524307Y-108219000D02*
X134070179Y-108219000D01*
X134524307Y-106749000D02*
X134070179Y-106749000D01*
%TO.C,D1*%
X174637500Y-99851000D02*
X175437500Y-99851000D01*
X174637500Y-95201000D02*
X174637500Y-99851000D01*
X177837500Y-95201000D02*
X177837500Y-99851000D01*
%TO.C,R7*%
X145134436Y-93160000D02*
X145588564Y-93160000D01*
X145134436Y-94630000D02*
X145588564Y-94630000D01*
%TO.C,SCK1*%
X149932500Y-122086000D02*
X149932500Y-124886000D01*
X147932500Y-122086000D02*
X149932500Y-122086000D01*
X149932500Y-124886000D02*
X147932500Y-124886000D01*
X147932500Y-124886000D02*
X147932500Y-122086000D01*
%TO.C,R6*%
X171153500Y-102267742D02*
X171153500Y-102742258D01*
X170108500Y-102267742D02*
X170108500Y-102742258D01*
%TO.C,C21*%
X150395000Y-100845252D02*
X150395000Y-100322748D01*
X151865000Y-100845252D02*
X151865000Y-100322748D01*
%TO.C,C10*%
X163378420Y-105043000D02*
X163659580Y-105043000D01*
X163378420Y-106063000D02*
X163659580Y-106063000D01*
%TO.C,C27*%
X138913080Y-109391000D02*
X138631920Y-109391000D01*
X138913080Y-108371000D02*
X138631920Y-108371000D01*
%TO.C,C26*%
X140660823Y-103930000D02*
X140379663Y-103930000D01*
X140660823Y-102910000D02*
X140379663Y-102910000D01*
%TO.C,C23*%
X148556500Y-115458420D02*
X148556500Y-115739580D01*
X147536500Y-115458420D02*
X147536500Y-115739580D01*
%TO.C,U2*%
X166847000Y-105517000D02*
X167572000Y-105517000D01*
X172067000Y-106242000D02*
X172067000Y-105517000D01*
X166847000Y-106242000D02*
X166847000Y-105517000D01*
X172067000Y-110012000D02*
X172067000Y-110737000D01*
X166847000Y-110012000D02*
X166847000Y-110737000D01*
X172067000Y-110737000D02*
X171342000Y-110737000D01*
X166847000Y-110737000D02*
X167572000Y-110737000D01*
%TO.C,RV1*%
X160877500Y-99717000D02*
X160877500Y-98437000D01*
X160877500Y-99717000D02*
X156037500Y-99717000D01*
X160877500Y-99337000D02*
X160877500Y-99337000D01*
X160877500Y-99337000D02*
X160877500Y-98437000D01*
X160877500Y-99337000D02*
X160877500Y-98437000D01*
X160877500Y-95957000D02*
X160877500Y-94677000D01*
X160877500Y-94677000D02*
X156037500Y-94677000D01*
X156037500Y-99717000D02*
X156037500Y-99237000D01*
X156037500Y-97457000D02*
X156037500Y-96937000D01*
X156037500Y-95157000D02*
X156037500Y-94677000D01*
%TO.C,R16*%
X154747564Y-123078000D02*
X154293436Y-123078000D01*
X154747564Y-121608000D02*
X154293436Y-121608000D01*
%TO.C,TP1*%
X168806500Y-112626000D02*
X170206500Y-112626000D01*
X168806500Y-114026000D02*
X168806500Y-112626000D01*
X170206500Y-112626000D02*
X170206500Y-114026000D01*
X170206500Y-114026000D02*
X168806500Y-114026000D01*
%TO.C,TP7*%
X161171000Y-105113000D02*
X159771000Y-105113000D01*
X161171000Y-103713000D02*
X161171000Y-105113000D01*
X159771000Y-105113000D02*
X159771000Y-103713000D01*
X159771000Y-103713000D02*
X161171000Y-103713000D01*
%TO.C,TP4*%
X157122500Y-105260000D02*
X158522500Y-105260000D01*
X157122500Y-106660000D02*
X157122500Y-105260000D01*
X158522500Y-105260000D02*
X158522500Y-106660000D01*
X158522500Y-106660000D02*
X157122500Y-106660000D01*
%TO.C,JP4*%
X167202500Y-97213000D02*
X171302500Y-97213000D01*
X167202500Y-99213000D02*
X167202500Y-97213000D01*
X171302500Y-97213000D02*
X171302500Y-99213000D01*
X171302500Y-99213000D02*
X167202500Y-99213000D01*
%TO.C,JP2*%
X162627000Y-100111000D02*
X165427000Y-100111000D01*
X162627000Y-102111000D02*
X162627000Y-100111000D01*
X165427000Y-100111000D02*
X165427000Y-102111000D01*
X165427000Y-102111000D02*
X162627000Y-102111000D01*
%TO.C,C18*%
X151461920Y-102656000D02*
X151743080Y-102656000D01*
X151461920Y-103676000D02*
X151743080Y-103676000D01*
%TO.C,R25*%
X134524307Y-106314000D02*
X134070179Y-106314000D01*
X134524307Y-104844000D02*
X134070179Y-104844000D01*
%TO.C,R34*%
X148197500Y-97019564D02*
X148197500Y-96565436D01*
X149667500Y-97019564D02*
X149667500Y-96565436D01*
%TO.C,D2*%
X160822000Y-91065500D02*
X160822000Y-87765500D01*
X160822000Y-91065500D02*
X155312000Y-91065500D01*
X160822000Y-87765500D02*
X155312000Y-87765500D01*
%TO.C,C29*%
X146316600Y-100543380D02*
X146316600Y-100262220D01*
X147336600Y-100543380D02*
X147336600Y-100262220D01*
%TO.C,TP14*%
X172743500Y-101831000D02*
X174143500Y-101831000D01*
X172743500Y-103231000D02*
X172743500Y-101831000D01*
X174143500Y-101831000D02*
X174143500Y-103231000D01*
X174143500Y-103231000D02*
X172743500Y-103231000D01*
%TO.C,D4*%
X181266500Y-123118000D02*
X180466500Y-123118000D01*
X181266500Y-127768000D02*
X181266500Y-123118000D01*
X178066500Y-127768000D02*
X178066500Y-123118000D01*
%TO.C,J13*%
X134013500Y-129388000D02*
X146833500Y-129388000D01*
X134013500Y-129388000D02*
X134013500Y-126788000D01*
X146833500Y-129388000D02*
X146833500Y-124188000D01*
X134013500Y-126788000D02*
X136613500Y-126788000D01*
X136613500Y-126788000D02*
X136613500Y-124188000D01*
X134013500Y-125518000D02*
X134013500Y-124188000D01*
X134013500Y-124188000D02*
X135343500Y-124188000D01*
X136613500Y-124188000D02*
X146833500Y-124188000D01*
%TO.C,R10*%
X181290500Y-111297436D02*
X181290500Y-111751564D01*
X179820500Y-111297436D02*
X179820500Y-111751564D01*
%TO.C,C9*%
X177119248Y-112845000D02*
X177641752Y-112845000D01*
X177119248Y-114315000D02*
X177641752Y-114315000D01*
%TO.C,C7*%
X182040500Y-124324000D02*
X183040500Y-124324000D01*
X182540500Y-123824000D02*
X182540500Y-124824000D01*
X183280500Y-123338437D02*
X183280500Y-125324000D01*
X183280500Y-123338437D02*
X184344937Y-122274000D01*
X183280500Y-129729563D02*
X183280500Y-127744000D01*
X183280500Y-129729563D02*
X184344937Y-130794000D01*
X184344937Y-122274000D02*
X191800500Y-122274000D01*
X184344937Y-130794000D02*
X191800500Y-130794000D01*
X191800500Y-122274000D02*
X191800500Y-125324000D01*
X191800500Y-130794000D02*
X191800500Y-127744000D01*
%TO.C,R14*%
X180020564Y-122443000D02*
X179566436Y-122443000D01*
X180020564Y-120973000D02*
X179566436Y-120973000D01*
%TO.C,R5*%
X136683307Y-104409000D02*
X136229179Y-104409000D01*
X136683307Y-102939000D02*
X136229179Y-102939000D01*
%TO.C,J12*%
X138959500Y-72245000D02*
X126139500Y-72245000D01*
X138959500Y-72245000D02*
X138959500Y-74845000D01*
X126139500Y-72245000D02*
X126139500Y-77445000D01*
X138959500Y-74845000D02*
X136359500Y-74845000D01*
X136359500Y-74845000D02*
X136359500Y-77445000D01*
X138959500Y-76115000D02*
X138959500Y-77445000D01*
X138959500Y-77445000D02*
X137629500Y-77445000D01*
X136359500Y-77445000D02*
X126139500Y-77445000D01*
%TO.C,JP6*%
X159334500Y-113564000D02*
X155234500Y-113564000D01*
X159334500Y-111564000D02*
X159334500Y-113564000D01*
X155234500Y-113564000D02*
X155234500Y-111564000D01*
X155234500Y-111564000D02*
X159334500Y-111564000D01*
%TO.C,TP22*%
X153947500Y-126469000D02*
X155347500Y-126469000D01*
X153947500Y-127869000D02*
X153947500Y-126469000D01*
X155347500Y-126469000D02*
X155347500Y-127869000D01*
X155347500Y-127869000D02*
X153947500Y-127869000D01*
%TO.C,R33*%
X146292500Y-97019564D02*
X146292500Y-96565436D01*
X147762500Y-97019564D02*
X147762500Y-96565436D01*
%TO.C,TP21*%
X151915500Y-125707000D02*
X153315500Y-125707000D01*
X151915500Y-127107000D02*
X151915500Y-125707000D01*
X153315500Y-125707000D02*
X153315500Y-127107000D01*
X153315500Y-127107000D02*
X151915500Y-127107000D01*
%TO.C,R20*%
X141031564Y-114442000D02*
X140577436Y-114442000D01*
X141031564Y-112972000D02*
X140577436Y-112972000D01*
%TO.C,TP10*%
X155314243Y-85956000D02*
X156714243Y-85956000D01*
X155314243Y-87356000D02*
X155314243Y-85956000D01*
X156714243Y-85956000D02*
X156714243Y-87356000D01*
X156714243Y-87356000D02*
X155314243Y-87356000D01*
%TO.C,TP2*%
X170965500Y-112626000D02*
X172365500Y-112626000D01*
X170965500Y-114026000D02*
X170965500Y-112626000D01*
X172365500Y-112626000D02*
X172365500Y-114026000D01*
X172365500Y-114026000D02*
X170965500Y-114026000D01*
%TO.C,R17*%
X155509564Y-93487000D02*
X155055436Y-93487000D01*
X155509564Y-92017000D02*
X155055436Y-92017000D01*
%TO.C,TP9*%
X140993500Y-91798000D02*
X142393500Y-91798000D01*
X140993500Y-93198000D02*
X140993500Y-91798000D01*
X142393500Y-91798000D02*
X142393500Y-93198000D01*
X142393500Y-93198000D02*
X140993500Y-93198000D01*
%TO.C,R12*%
X175229936Y-105580000D02*
X175684064Y-105580000D01*
X175229936Y-107050000D02*
X175684064Y-107050000D01*
%TO.C,MOSI1*%
X155520500Y-129579000D02*
X155520500Y-132379000D01*
X153520500Y-129579000D02*
X155520500Y-129579000D01*
X155520500Y-132379000D02*
X153520500Y-132379000D01*
X153520500Y-132379000D02*
X153520500Y-129579000D01*
%TO.C,R22*%
X141031564Y-112029000D02*
X140577436Y-112029000D01*
X141031564Y-110559000D02*
X140577436Y-110559000D01*
%TO.C,MISO1*%
X152472500Y-122086000D02*
X152472500Y-124886000D01*
X150472500Y-122086000D02*
X152472500Y-122086000D01*
X152472500Y-124886000D02*
X150472500Y-124886000D01*
X150472500Y-124886000D02*
X150472500Y-122086000D01*
%TO.C,C25*%
X150080500Y-115471420D02*
X150080500Y-115752580D01*
X149060500Y-115471420D02*
X149060500Y-115752580D01*
%TO.C,U5*%
X97188500Y-104682000D02*
X97188500Y-88442000D01*
X104808500Y-104682000D02*
X104808500Y-105292000D01*
X104808500Y-104682000D02*
X97188500Y-104682000D01*
X121428500Y-104682000D02*
X120808500Y-104682000D01*
X121428500Y-102562000D02*
X121428500Y-104682000D01*
X97188500Y-88442000D02*
X104808500Y-88442000D01*
X120808500Y-88442000D02*
X121428500Y-88442000D01*
X121428500Y-88442000D02*
X121428500Y-90562000D01*
%TO.C,R13*%
X175229936Y-109517000D02*
X175684064Y-109517000D01*
X175229936Y-110987000D02*
X175684064Y-110987000D01*
%TO.C,C24*%
X153617920Y-108752000D02*
X153899080Y-108752000D01*
X153617920Y-109772000D02*
X153899080Y-109772000D01*
%TO.C,J5*%
X115227500Y-85052000D02*
X115227500Y-86282000D01*
X115512500Y-86282000D02*
X115227500Y-86282000D01*
X115512500Y-86282000D02*
X115512500Y-87115000D01*
X108977500Y-86282000D02*
X108692500Y-86282000D01*
X108692500Y-86282000D02*
X108692500Y-87115000D01*
X115512500Y-87115000D02*
X113957500Y-87115000D01*
X112787500Y-87115000D02*
X111417500Y-87115000D01*
X110247500Y-87115000D02*
X108692500Y-87115000D01*
%TO.C,J1*%
X152716500Y-87705900D02*
X152716500Y-89405900D01*
X143376500Y-87705900D02*
X143376500Y-89405900D01*
%TO.C,JP7*%
X137613500Y-114466000D02*
X137613500Y-117266000D01*
X135613500Y-114466000D02*
X137613500Y-114466000D01*
X137613500Y-117266000D02*
X135613500Y-117266000D01*
X135613500Y-117266000D02*
X135613500Y-114466000D01*
%TO.C,C1*%
X182040500Y-115434000D02*
X183040500Y-115434000D01*
X182540500Y-114934000D02*
X182540500Y-115934000D01*
X183280500Y-114448437D02*
X183280500Y-116434000D01*
X183280500Y-114448437D02*
X184344937Y-113384000D01*
X183280500Y-120839563D02*
X183280500Y-118854000D01*
X183280500Y-120839563D02*
X184344937Y-121904000D01*
X184344937Y-113384000D02*
X191800500Y-113384000D01*
X184344937Y-121904000D02*
X191800500Y-121904000D01*
X191800500Y-113384000D02*
X191800500Y-116434000D01*
X191800500Y-121904000D02*
X191800500Y-118854000D01*
%TO.C,TP15*%
X160424500Y-107038000D02*
X161824500Y-107038000D01*
X160424500Y-108438000D02*
X160424500Y-107038000D01*
X161824500Y-107038000D02*
X161824500Y-108438000D01*
X161824500Y-108438000D02*
X160424500Y-108438000D01*
%TO.C,TP16*%
X162583500Y-108308000D02*
X163983500Y-108308000D01*
X162583500Y-109708000D02*
X162583500Y-108308000D01*
X163983500Y-108308000D02*
X163983500Y-109708000D01*
X163983500Y-109708000D02*
X162583500Y-109708000D01*
%TO.C,C5*%
X174046420Y-103773000D02*
X174327580Y-103773000D01*
X174046420Y-104793000D02*
X174327580Y-104793000D01*
%TO.C,JP3*%
X160746500Y-93752000D02*
X157946500Y-93752000D01*
X160746500Y-91752000D02*
X160746500Y-93752000D01*
X157946500Y-93752000D02*
X157946500Y-91752000D01*
X157946500Y-91752000D02*
X160746500Y-91752000D01*
%TO.C,C4*%
X166738500Y-102687580D02*
X166738500Y-102406420D01*
X167758500Y-102687580D02*
X167758500Y-102406420D01*
%TO.C,C8*%
X174046420Y-111520000D02*
X174327580Y-111520000D01*
X174046420Y-112540000D02*
X174327580Y-112540000D01*
%TD*%
M02*
